<svg width="50" height="50" viewBox="0 0 50 50" fill="none" xmlns="http://www.w3.org/2000/svg">
<rect width="50" height="50" rx="14" fill="#C8E4FC"/>
<path d="M27.3916 16.6667L16.9319 27.1265M16.9319 27.1265L13.0455 31.0128C11.5428 32.5155 10.7915 33.2668 10.3957 34.2223C10 35.1777 10 36.2402 10 38.3653V40H11.6347C13.7598 40 14.8223 40 15.7777 39.6043C16.7331 39.2085 17.4845 38.4572 18.9871 36.9545L28.8151 27.1265M16.9319 27.1265H28.8151M28.8151 27.1265L33.3333 22.6083M37.0145 18.9811L39.7 21.6667M37.0145 18.9811L38.4508 17.5447C38.9383 17.0572 39.1821 16.8134 39.3516 16.5755C40.2161 15.3613 40.2161 13.7325 39.3516 12.5183C39.1821 12.2804 38.9383 12.0366 38.4508 11.5491C37.9633 11.0616 37.7196 10.8178 37.4816 10.6484C36.2675 9.78386 34.6386 9.78386 33.4245 10.6484C33.1866 10.8178 32.9428 11.0616 32.4553 11.5491L31.0188 12.9855M37.0145 18.9811L31.0188 12.9855M31.0188 12.9855L28.3333 10.3" stroke="#104576" stroke-width="2" stroke-linecap="round" stroke-linejoin="round"/>
</svg>
