<svg width="50" height="50" viewBox="0 0 50 50" fill="none" xmlns="http://www.w3.org/2000/svg">
<rect width="50" height="50" rx="14" fill="#C8E4FC"/>
<path d="M31.9565 15.1938C32.2003 15.1938 32.3974 14.9963 32.3974 14.7529C32.3974 14.51 32.5949 14.312 32.8383 14.312C33.0821 14.312 33.2792 14.1145 33.2792 13.8712C33.2792 13.6278 33.0821 13.4303 32.8383 13.4303C32.1091 13.4303 31.5156 14.0237 31.5156 14.7529C31.5156 14.9963 31.7127 15.1938 31.9565 15.1938Z" fill="#9EA9AA"/>
<path d="M14.3198 29.3023C14.5636 29.3023 14.7607 29.1047 14.7607 28.8614C14.7607 28.3751 15.1562 27.9796 15.6425 27.9796C15.8863 27.9796 16.0834 27.7821 16.0834 27.5387C16.0834 27.2953 15.8863 27.0978 15.6425 27.0978C14.6699 27.0978 13.8789 27.8888 13.8789 28.8614C13.8789 29.1047 14.076 29.3023 14.3198 29.3023Z" fill="#25292A"/>
<path d="M16.9678 11.6667C18.4271 11.6667 19.6133 12.8528 19.6133 14.3122L19.6045 14.5251C19.565 15.0176 19.3908 15.4711 19.1191 15.8493C19.1283 15.8573 19.1403 15.8607 19.1494 15.8698L22.0986 18.819C22.1039 18.8247 22.106 18.8328 22.1113 18.8385C22.8723 18.2147 23.8449 17.8395 24.9043 17.8395L25.1104 17.8434C26.1339 17.8909 27.0691 18.29 27.7939 18.9206C27.7983 18.9149 27.8005 18.9082 27.8057 18.903L30.9326 15.945C30.9449 15.9336 30.9599 15.9292 30.9727 15.9196C30.7871 15.6233 30.6685 15.2817 30.6416 14.9128L30.6357 14.7526C30.6359 13.5359 31.6232 12.5486 32.8398 12.5485L33.0654 12.5602C34.1764 12.6733 35.0448 13.612 35.0449 14.7526L35.0332 14.9782C34.9202 16.0893 33.9806 16.9576 32.8398 16.9577L32.6641 16.9508C32.2566 16.9186 31.8791 16.7746 31.5635 16.5504C31.5538 16.5615 31.5486 16.5755 31.5381 16.5856L28.4121 19.5436C28.4059 19.5493 28.3987 19.552 28.3926 19.5573C28.9681 20.3009 29.3124 21.2327 29.3125 22.2477C29.3125 22.9954 29.1228 23.6995 28.7939 24.318C28.8014 24.3224 28.8099 24.3229 28.8174 24.3278L29.957 25.0866C29.5934 25.1838 29.2386 25.3021 28.8926 25.4381L28.3271 25.0612C28.319 25.0559 28.3154 25.0473 28.3076 25.0417C27.5846 25.9194 26.5331 26.5114 25.3389 26.6295C25.3394 26.6391 25.3447 26.6473 25.3447 26.6569V27.8141C25.0278 28.1435 24.7326 28.4936 24.4629 28.8639V26.6569C24.4629 26.6476 24.4678 26.6388 24.4678 26.6295C23.3247 26.5166 22.3096 25.9691 21.5928 25.1491C21.5863 25.1542 21.5833 25.1623 21.5762 25.1676L18.0527 27.6852C18.0427 27.6926 18.0306 27.6954 18.0205 27.7018C18.1924 28.0518 18.291 28.4445 18.291 28.861L18.2773 29.1315C18.1417 30.4642 17.0136 31.5064 15.6455 31.5065L15.375 31.4928C14.0423 31.3571 13 30.2291 13 28.861C13.0002 27.4018 14.1863 26.2165 15.6455 26.2165L15.915 26.2301C16.5367 26.2944 17.0948 26.5783 17.5127 26.9977C17.5233 26.9889 17.53 26.9763 17.541 26.9684L21.0635 24.4508C21.0701 24.4465 21.0784 24.4455 21.085 24.4411C20.7575 23.8756 20.5512 23.2334 20.5049 22.5456L20.4951 22.2477C20.4952 21.1884 20.8708 20.2156 21.4941 19.4547C21.488 19.4499 21.4803 19.4486 21.4746 19.443L18.5254 16.4928C18.5163 16.4836 18.5132 16.4712 18.5049 16.4616C18.0728 16.7728 17.5427 16.9577 16.9678 16.9577L16.6982 16.944C15.4543 16.8176 14.4627 15.8265 14.3359 14.5827L14.3223 14.3122C14.3223 12.8529 15.5085 11.6668 16.9678 11.6667ZM15.6455 27.9792C15.1603 27.9792 14.7639 28.3758 14.7637 28.861C14.7637 29.3463 15.1602 29.7428 15.6455 29.7428C16.1308 29.7427 16.5273 29.3463 16.5273 28.861C16.5273 28.726 16.4958 28.5989 16.4375 28.4801L16.375 28.3542L16.2637 28.2419C16.0969 28.0745 15.8778 27.9792 15.6455 27.9792ZM24.9043 19.6022C24.269 19.6022 23.6879 19.8261 23.2295 20.2018L23.0244 20.3688L22.8584 20.5729C22.4827 21.0316 22.2589 21.6123 22.2588 22.2477C22.2588 22.7262 22.386 23.1697 22.6104 23.5573L22.7412 23.7829L22.9209 23.9889C23.3512 24.481 23.9578 24.8072 24.6416 24.8747L24.8984 24.9001L25.166 24.8737C25.8793 24.803 26.5091 24.4512 26.9463 23.9206L27.1221 23.7067L27.2373 23.4909C27.437 23.1153 27.5498 22.6935 27.5498 22.2477C27.5497 21.6396 27.3446 21.0841 26.998 20.6364L26.8291 20.4176L26.6367 20.2506C26.1716 19.846 25.5659 19.6023 24.9043 19.6022ZM16.9678 13.4303C16.4825 13.4305 16.0859 13.8269 16.0859 14.3122C16.086 14.7974 16.4826 15.1939 16.9678 15.194C17.1587 15.194 17.3305 15.134 17.4736 15.0309L17.6006 14.9391L17.6865 14.82C17.79 14.6758 17.8496 14.5033 17.8496 14.3122C17.8496 13.8268 17.4531 13.4304 16.9678 13.4303ZM32.8398 14.3122C32.5971 14.3123 32.3996 14.5099 32.3994 14.7526C32.3994 14.8332 32.4213 14.9089 32.4678 14.9831L32.5205 15.068L32.584 15.1129C32.6554 15.1637 32.7426 15.194 32.8398 15.194C33.0827 15.194 33.2812 14.9954 33.2812 14.7526C33.2811 14.5099 33.0826 14.3122 32.8398 14.3122Z" fill="#224674"/>
<path d="M32.0031 37.44C34.5914 37.44 36.6897 35.3417 36.6897 32.7533C36.6897 30.1649 34.5914 28.0667 32.0031 28.0667C29.4147 28.0667 27.3164 30.1649 27.3164 32.7533C27.3164 35.3417 29.4147 37.44 32.0031 37.44Z" stroke="#224674" stroke-width="1.33333" stroke-linecap="round" stroke-linejoin="round"/>
<path d="M37.1859 37.9333L36.1992 36.9467" stroke="#224674" stroke-width="2" stroke-linecap="round" stroke-linejoin="round"/>
</svg>
