<svg width="24" height="24" viewBox="0 0 24 24" fill="none" xmlns="http://www.w3.org/2000/svg">
<path d="M17.2154 4.64493C17.3983 4.64493 17.5461 4.49679 17.5461 4.31427C17.5461 4.13207 17.6942 3.9836 17.8768 3.9836C18.0596 3.9836 18.2074 3.83546 18.2074 3.65293C18.2074 3.4704 18.0596 3.32227 17.8768 3.32227C17.3298 3.32227 16.8848 3.76734 16.8848 4.31427C16.8848 4.49679 17.0326 4.64493 17.2154 4.64493Z" fill="#9EA9AA"/>
<path d="M3.98887 15.2266C4.17173 15.2266 4.31954 15.0784 4.31954 14.8959C4.31954 14.5312 4.61614 14.2346 4.98087 14.2346C5.16373 14.2346 5.31154 14.0864 5.31154 13.9039C5.31154 13.7214 5.16373 13.5732 4.98087 13.5732C4.25142 13.5732 3.6582 14.1665 3.6582 14.8959C3.6582 15.0784 3.80601 15.2266 3.98887 15.2266Z" fill="#25292A"/>
<path d="M6.17871 2.01074C7.1782 2.11255 7.95996 2.95834 7.95996 3.98438L7.95312 4.14355C7.92356 4.51308 7.79263 4.85307 7.58887 5.13672C7.59581 5.14298 7.60537 5.14541 7.6123 5.15234L9.82422 7.36426C9.82813 7.36855 9.82906 7.37463 9.83301 7.37891C10.4037 6.91108 11.1333 6.62897 11.9277 6.62891L12.2354 6.64355C12.9432 6.70919 13.5883 6.99898 14.0957 7.44043C14.0989 7.43616 14.1006 7.43068 14.1045 7.42676L16.4492 5.20801C16.4584 5.1996 16.47 5.19665 16.4795 5.18945C16.3404 4.96731 16.2516 4.71123 16.2314 4.43457L16.2266 4.31445C16.2267 3.40195 16.9674 2.6612 17.8799 2.66113L18.0488 2.66992C18.8822 2.7546 19.5331 3.45893 19.5332 4.31445L19.5244 4.4834C19.4398 5.31684 18.7355 5.96774 17.8799 5.96777L17.748 5.96289C17.4426 5.93873 17.1595 5.8311 16.9229 5.66309C16.9156 5.6713 16.9121 5.68186 16.9043 5.68945L14.5596 7.9082C14.555 7.91249 14.5486 7.91403 14.5439 7.91797C14.9757 8.47567 15.2343 9.17425 15.2344 9.93555L15.2285 10.1445C15.198 10.6277 15.0616 11.0833 14.8457 11.4893C14.8513 11.4925 14.8577 11.4925 14.8633 11.4961L15.7178 12.0645C15.4452 12.1374 15.1793 12.2262 14.9199 12.3281L14.4961 12.0459C14.4898 12.0419 14.4864 12.0355 14.4805 12.0312C13.9382 12.6895 13.1496 13.1331 12.2539 13.2217C12.2542 13.2288 12.2586 13.2351 12.2588 13.2422V14.1104C12.021 14.3575 11.8 14.6206 11.5977 14.8984V13.2422C11.5978 13.2355 11.6005 13.2294 11.6006 13.2227C10.7433 13.1379 9.98192 12.7272 9.44434 12.1123C9.4396 12.1163 9.43711 12.1221 9.43164 12.126L6.79004 14.0137C6.78257 14.0192 6.77315 14.0216 6.76562 14.0264C6.89458 14.2889 6.96777 14.584 6.96777 14.8965L6.95801 15.0986C6.85631 16.0981 6.01029 16.8797 4.98438 16.8799L4.78125 16.8701C3.84836 16.7751 3.1057 16.0315 3.01074 15.0986L3 14.8965C3 13.802 3.88987 12.9121 4.98438 12.9121L5.18652 12.9229C5.65265 12.9711 6.07144 13.1836 6.38477 13.498C6.39255 13.4915 6.39726 13.4825 6.40527 13.4766L9.04785 11.5879C9.05275 11.5848 9.05862 11.5843 9.06348 11.5811C8.81784 11.1569 8.66364 10.6751 8.62891 10.1592L8.62109 9.93555C8.6212 9.14113 8.90264 8.41144 9.37012 7.84082C9.36565 7.83743 9.3606 7.83604 9.35645 7.83203L7.14453 5.62012C7.13769 5.61328 7.13498 5.6039 7.12891 5.59668C6.80488 5.8301 6.40674 5.96776 5.97559 5.96777L5.77344 5.95801C4.8404 5.8631 4.09684 5.11956 4.00195 4.18652L3.99219 3.98438C3.99219 2.89001 4.88127 2.00022 5.97559 2L6.17871 2.01074ZM4.98438 14.2344C4.62036 14.2344 4.32227 14.5325 4.32227 14.8965C4.32253 15.2603 4.62052 15.5576 4.98438 15.5576C5.34803 15.5574 5.64524 15.2601 5.64551 14.8965C5.64551 14.7951 5.62194 14.6986 5.57812 14.6094L5.53223 14.5176L5.44727 14.4316C5.32224 14.3062 5.15843 14.2345 4.98438 14.2344ZM11.9277 7.95215C11.4513 7.95221 11.0157 8.11958 10.6719 8.40137L10.5176 8.52637L10.3936 8.67969C10.1118 9.0236 9.94444 9.45912 9.94434 9.93555C9.94434 10.2944 10.0397 10.6273 10.208 10.918L10.3057 11.0869L10.4404 11.2412C10.7631 11.6103 11.2178 11.8555 11.7305 11.9062L11.9219 11.9248L12.124 11.9053C12.6592 11.8523 13.132 11.5886 13.46 11.1904L13.5908 11.0312L13.6777 10.8682C13.8275 10.5865 13.9121 10.2699 13.9121 9.93555C13.912 9.47951 13.758 9.06331 13.498 8.72754L13.3711 8.5625L13.2275 8.43848C12.8786 8.13492 12.424 7.95216 11.9277 7.95215ZM5.97559 3.32227C5.61176 3.32249 5.31445 3.6205 5.31445 3.98438C5.31466 4.34808 5.61188 4.64528 5.97559 4.64551C6.11881 4.64549 6.24809 4.60073 6.35547 4.52344L6.44922 4.45508L6.51465 4.36523C6.59227 4.25718 6.63762 4.12764 6.6377 3.98438C6.63769 3.62038 6.33957 3.3223 5.97559 3.32227ZM17.8799 3.98438C17.6979 3.98444 17.5499 4.13244 17.5498 4.31445C17.5498 4.37486 17.5658 4.43172 17.6006 4.4873L17.6396 4.5498L17.6885 4.58496C17.742 4.62292 17.8071 4.64548 17.8799 4.64551C18.062 4.64547 18.2109 4.49658 18.2109 4.31445C18.2108 4.13242 18.0619 3.98441 17.8799 3.98438Z" fill="#DD6F94"/>
<path d="M17.2552 21.3298C19.1965 21.3298 20.7702 19.7561 20.7702 17.8148C20.7702 15.8735 19.1965 14.2998 17.2552 14.2998C15.314 14.2998 13.7402 15.8735 13.7402 17.8148C13.7402 19.7561 15.314 21.3298 17.2552 21.3298Z" stroke="#DD6F94" stroke-linecap="round" stroke-linejoin="round"/>
<path d="M21.1404 21.7L20.4004 20.96" stroke="#DD6F94" stroke-width="1.5" stroke-linecap="round" stroke-linejoin="round"/>
</svg>
