<svg width="18" height="18" viewBox="0 0 18 18" fill="none" xmlns="http://www.w3.org/2000/svg">
<rect x="0.5" y="0.5" width="17" height="17" rx="8.5" fill="white"/>
<rect x="0.5" y="0.5" width="17" height="17" rx="8.5" stroke="url(#paint0_radial_3242_9921)"/>
<path d="M12.8269 11.6715H5.17453C5.05762 11.6715 4.94839 11.6138 4.88257 11.5172C3.87292 10.0366 3.79547 7.18848 3.78961 6.76569C3.78925 6.74911 3.78906 6.73236 3.78906 6.7157C3.78906 6.52078 3.9469 6.36267 4.14182 6.3623H4.14255C4.3371 6.3623 4.49521 6.51968 4.49594 6.71432C4.49594 6.71671 4.49603 6.73758 4.49686 6.77457C4.52798 7.78009 5.35571 8.58841 6.36865 8.58841C7.40128 8.58841 8.24136 7.74832 8.24136 6.7157C8.24136 6.52051 8.39966 6.3623 8.59476 6.3623H9.40656C9.60175 6.3623 9.75995 6.52051 9.75995 6.7157C9.75995 7.74832 10.6001 8.58841 11.6328 8.58841C12.6466 8.58841 13.4749 7.77863 13.5046 6.77182C13.5053 6.73648 13.5055 6.71671 13.5055 6.71442C13.5062 6.51968 13.6642 6.3623 13.8589 6.3623H13.8595C14.0544 6.36267 14.2122 6.52078 14.2122 6.7157C14.2122 6.73245 14.2121 6.74911 14.2118 6.76578C14.2058 7.18848 14.1284 10.0367 13.1188 11.5173C13.053 11.6138 12.9437 11.6715 12.8269 11.6715Z" fill="#FFF780"/>
<path d="M13.8587 6.3623C13.8585 6.3623 13.8583 6.3623 13.8581 6.3623C13.6635 6.3623 13.5054 6.51968 13.5047 6.71432C13.5047 6.71671 13.5046 6.73648 13.5038 6.77182C13.4741 7.77853 12.6458 8.58841 11.632 8.58841C10.5993 8.58841 9.75925 7.74832 9.75925 6.7157C9.75925 6.52051 9.60095 6.3623 9.40585 6.3623H9V11.6714H12.8261C12.943 11.6714 13.0522 11.6137 13.118 11.5172C14.1277 10.0366 14.2051 7.18839 14.211 6.76569C14.2114 6.74911 14.2115 6.73236 14.2115 6.7157C14.2115 6.52078 14.0536 6.36267 13.8587 6.3623Z" fill="#FFC02E"/>
<path d="M9.00122 5.15625C8.37161 5.15625 7.85938 5.66849 7.85938 6.2981C7.85938 6.9277 8.37161 7.43985 9.00122 7.43985C9.63083 7.43985 10.1431 6.9277 10.1431 6.2981C10.1431 5.66849 9.63083 5.15625 9.00122 5.15625Z" fill="#FFC02E"/>
<path d="M9 5.15625V7.43994C9.62961 7.43985 10.1418 6.9277 10.1418 6.2981C10.1418 5.66849 9.62952 5.15634 9 5.15625Z" fill="#FFA73B"/>
<path d="M4.14185 6.03711C3.51224 6.03711 3 6.54935 3 7.17896C3 7.80856 3.51224 8.3208 4.14185 8.3208C4.77145 8.3208 5.2836 7.80856 5.2836 7.17896C5.2836 6.54935 4.77145 6.03711 4.14185 6.03711Z" fill="#FFC02E"/>
<path d="M13.8566 6.03711C13.227 6.03711 12.7148 6.54935 12.7148 7.17896C12.7148 7.80847 13.227 8.32071 13.8566 8.32071C14.4862 8.32071 14.9984 7.80847 14.9984 7.17896C14.9984 6.54935 14.4862 6.03711 13.8566 6.03711Z" fill="#FFA73B"/>
<path d="M12.826 12.8311H5.17371C4.97852 12.8311 4.82031 12.6729 4.82031 12.4777V11.4238H13.1794V12.4777C13.1794 12.6729 13.0212 12.8311 12.826 12.8311Z" fill="#FFC02E"/>
<path d="M9 12.8311H12.8261C13.0213 12.8311 13.1795 12.6729 13.1795 12.4777V11.4238H9V12.8311Z" fill="#FFA73B"/>
<defs>
<radialGradient id="paint0_radial_3242_9921" cx="0" cy="0" r="1" gradientUnits="userSpaceOnUse" gradientTransform="translate(6.45455 0.999999) rotate(62.549) scale(15.7763)">
<stop stop-color="#FFC02E"/>
<stop offset="1" stop-color="#D7D43C"/>
</radialGradient>
</defs>
</svg>
