<svg width="50" height="50" viewBox="0 0 50 50" fill="none" xmlns="http://www.w3.org/2000/svg">
<rect width="50" height="50" rx="14" fill="#C8E4FC"/>
<path d="M10 16C10 13.1716 10 11.7574 10.8787 10.8787C11.7574 10 13.1716 10 16 10C18.8284 10 20.2426 10 21.1213 10.8787C22 11.7574 22 13.1716 22 16V19C22 21.8284 22 23.2426 21.1213 24.1213C20.2426 25 18.8284 25 16 25C13.1716 25 11.7574 25 10.8787 24.1213C10 23.2426 10 21.8284 10 19V16Z" stroke="#104576" stroke-width="2"/>
<path d="M10 35.5C10 34.1021 10 33.4033 10.2284 32.8519C10.5328 32.1169 11.1169 31.5328 11.8519 31.2283C12.4033 31 13.1022 31 14.5 31H17.5C18.8978 31 19.5967 31 20.1481 31.2283C20.8831 31.5328 21.4672 32.1169 21.7716 32.8519C22 33.4033 22 34.1021 22 35.5C22 36.8979 22 37.5967 21.7716 38.1481C21.4672 38.8831 20.8831 39.4672 20.1481 39.7717C19.5967 40 18.8978 40 17.5 40H14.5C13.1022 40 12.4033 40 11.8519 39.7717C11.1169 39.4672 10.5328 38.8831 10.2284 38.1481C10 37.5967 10 36.8979 10 35.5Z" stroke="#104576" stroke-width="2"/>
<path d="M28 31C28 28.1716 28 26.7574 28.8787 25.8787C29.7574 25 31.1716 25 34 25C36.8284 25 38.2426 25 39.1213 25.8787C40 26.7574 40 28.1716 40 31V34C40 36.8284 40 38.2426 39.1213 39.1213C38.2426 40 36.8284 40 34 40C31.1716 40 29.7574 40 28.8787 39.1213C28 38.2426 28 36.8284 28 34V31Z" stroke="#104576" stroke-width="2"/>
<path d="M28 14.5C28 13.1022 28 12.4033 28.2283 11.8519C28.5328 11.1169 29.1169 10.5328 29.8519 10.2284C30.4033 10 31.1021 10 32.5 10H35.5C36.8979 10 37.5967 10 38.1481 10.2284C38.8831 10.5328 39.4672 11.1169 39.7717 11.8519C40 12.4033 40 13.1022 40 14.5C40 15.8978 40 16.5967 39.7717 17.1481C39.4672 17.8831 38.8831 18.4672 38.1481 18.7716C37.5967 19 36.8979 19 35.5 19H32.5C31.1021 19 30.4033 19 29.8519 18.7716C29.1169 18.4672 28.5328 17.8831 28.2283 17.1481C28 16.5967 28 15.8978 28 14.5Z" stroke="#104576" stroke-width="2"/>
</svg>
