<svg width="50" height="50" viewBox="0 0 50 50" fill="none" xmlns="http://www.w3.org/2000/svg">
<rect width="50" height="50" rx="14" fill="#C8E4FC"/>
<path d="M25 16.5V37.5M15.9708 12.4282C20.9826 13.3824 23.9696 15.3785 25 16.5244C26.0304 15.3785 29.0173 13.3824 34.0291 12.4282C36.5681 11.9447 37.8376 11.703 38.9188 12.6295C40 13.5559 40 15.0603 40 18.0692V28.8825C40 31.6337 40 33.0091 39.3061 33.868C38.6122 34.7268 37.0846 35.0177 34.0291 35.5995C31.3055 36.1181 29.1799 36.9443 27.6412 37.7747C26.1274 38.5916 25.3705 39 25 39C24.6295 39 23.8726 38.5916 22.3588 37.7747C20.8202 36.9443 18.6945 36.1181 15.9708 35.5995C12.9155 35.0177 11.3878 34.7268 10.6939 33.868C10 33.0091 10 31.6337 10 28.8825V18.0692C10 15.0603 10 13.5559 11.0812 12.6295C12.1624 11.703 13.4318 11.9447 15.9708 12.4282Z" stroke="#104576" stroke-width="2" stroke-linecap="round" stroke-linejoin="round"/>
</svg>
