<svg width="50" height="50" viewBox="0 0 50 50" fill="none" xmlns="http://www.w3.org/2000/svg">
<rect width="50" height="50" rx="14" fill="#C8E4FC"/>
<path d="M30.3333 39.3333H19.6667C14.8 39.3333 12 36.5333 12 31.6667V18.3333C12 13.4667 14.8 10.6667 19.6667 10.6667H30.3333C35.2 10.6667 38 13.4667 38 18.3333V31.6667C38 36.5333 35.2 39.3333 30.3333 39.3333ZM19.6667 12.6667C15.8533 12.6667 14 14.52 14 18.3333V31.6667C14 35.48 15.8533 37.3333 19.6667 37.3333H30.3333C34.1467 37.3333 36 35.48 36 31.6667V18.3333C36 14.52 34.1467 12.6667 30.3333 12.6667H19.6667Z" fill="#224674"/>
<path d="M33.6654 21.3333H30.9987C28.972 21.3333 27.332 19.6933 27.332 17.6667V15C27.332 14.4533 27.7854 14 28.332 14C28.8787 14 29.332 14.4533 29.332 15V17.6667C29.332 18.5867 30.0787 19.3333 30.9987 19.3333H33.6654C34.212 19.3333 34.6654 19.7867 34.6654 20.3333C34.6654 20.88 34.212 21.3333 33.6654 21.3333Z" fill="#224674"/>
<path d="M25.0013 27.3333H19.668C19.1213 27.3333 18.668 26.88 18.668 26.3333C18.668 25.7867 19.1213 25.3333 19.668 25.3333H25.0013C25.548 25.3333 26.0013 25.7867 26.0013 26.3333C26.0013 26.88 25.548 27.3333 25.0013 27.3333Z" fill="#224674"/>
<path d="M30.3346 32.6667H19.668C19.1213 32.6667 18.668 32.2133 18.668 31.6667C18.668 31.12 19.1213 30.6667 19.668 30.6667H30.3346C30.8813 30.6667 31.3346 31.12 31.3346 31.6667C31.3346 32.2133 30.8813 32.6667 30.3346 32.6667Z" fill="#224674"/>
</svg>
