<svg width="50" height="50" viewBox="0 0 50 50" fill="none" xmlns="http://www.w3.org/2000/svg">
<rect width="50" height="50" rx="14" fill="#C8E4FC"/>
<path d="M25 35.3333C20.04 35.3333 16 31.2933 16 26.3333V19.6667C16 14.7067 20.04 10.6667 25 10.6667C29.96 10.6667 34 14.7067 34 19.6667V26.3333C34 31.2933 29.96 35.3333 25 35.3333ZM25 12.6667C21.1467 12.6667 18 15.8 18 19.6667V26.3333C18 30.2 21.1467 33.3333 25 33.3333C28.8533 33.3333 32 30.2 32 26.3333V19.6667C32 15.8 28.8533 12.6667 25 12.6667Z" fill="#224674"/>
<path d="M25 39.3333C17.8267 39.3333 12 33.5067 12 26.3333V23.6667C12 23.12 12.4533 22.6667 13 22.6667C13.5467 22.6667 14 23.12 14 23.6667V26.3333C14 32.4 18.9333 37.3333 25 37.3333C31.0667 37.3333 36 32.4 36 26.3333V23.6667C36 23.12 36.4533 22.6667 37 22.6667C37.5467 22.6667 38 23.12 38 23.6667V26.3333C38 33.5067 32.1733 39.3333 25 39.3333Z" fill="#224674"/>
<path d="M28.4824 19.9733C28.3758 19.9733 28.2558 19.96 28.1358 19.92C25.9891 19.1467 23.6291 19.1467 21.4824 19.92C20.9758 20.1067 20.4024 19.84 20.2158 19.32C20.0291 18.8 20.2958 18.2267 20.8158 18.04C23.4024 17.1067 26.2424 17.1067 28.8291 18.04C29.3491 18.2267 29.6158 18.8 29.4291 19.32C29.2824 19.7333 28.8958 19.9733 28.4824 19.9733Z" fill="#224674"/>
<path d="M27.2679 23.9733C27.1879 23.9733 27.0945 23.96 27.0012 23.9333C25.5745 23.5467 24.0679 23.5467 22.6412 23.9333C22.0945 24.08 21.5612 23.76 21.4145 23.2267C21.2679 22.6933 21.5879 22.1467 22.1212 22C23.8945 21.52 25.7612 21.52 27.5345 22C28.0679 22.1467 28.3879 22.6933 28.2412 23.2267C28.1079 23.6933 27.7079 23.9733 27.2679 23.9733Z" fill="#224674"/>
</svg>
