<svg width="50" height="50" viewBox="0 0 50 50" fill="none" xmlns="http://www.w3.org/2000/svg">
<rect width="50" height="50" rx="14" fill="#C8E4FC"/>
<path d="M29.0013 39.3333H21.0013C13.7613 39.3333 10.668 36.24 10.668 29V21C10.668 13.76 13.7613 10.6667 21.0013 10.6667H29.0013C36.2413 10.6667 39.3346 13.76 39.3346 21V29C39.3346 36.24 36.2413 39.3333 29.0013 39.3333ZM21.0013 12.6667C14.8546 12.6667 12.668 14.8533 12.668 21V29C12.668 35.1467 14.8546 37.3333 21.0013 37.3333H29.0013C35.148 37.3333 37.3346 35.1467 37.3346 29V21C37.3346 14.8533 35.148 12.6667 29.0013 12.6667H21.0013Z" fill="#224674"/>
<path d="M23.3478 30.8267C22.7878 30.8267 22.2678 30.6933 21.8011 30.4267C20.7344 29.8133 20.1211 28.56 20.1211 26.9733V23.0267C20.1211 21.4533 20.7344 20.1867 21.8011 19.5733C22.8678 18.96 24.2544 19.0533 25.6278 19.8533L29.0544 21.8267C30.4144 22.6133 31.2011 23.7733 31.2011 25C31.2011 26.2267 30.4144 27.3867 29.0544 28.1733L25.6278 30.1467C24.8544 30.6 24.0678 30.8267 23.3478 30.8267ZM23.3611 21.1733C23.1478 21.1733 22.9611 21.2133 22.8144 21.3067C22.3878 21.56 22.1344 22.1867 22.1344 23.0267V26.9733C22.1344 27.8133 22.3744 28.44 22.8144 28.6933C23.2411 28.9467 23.9078 28.84 24.6411 28.4133L28.0678 26.44C28.8011 26.0133 29.2144 25.4933 29.2144 25C29.2144 24.5067 28.8011 23.9733 28.0678 23.56L24.6411 21.5867C24.1611 21.3067 23.7211 21.1733 23.3611 21.1733Z" fill="#224674"/>
</svg>
