<svg width="50" height="50" viewBox="0 0 50 50" fill="none" xmlns="http://www.w3.org/2000/svg">
<rect width="50" height="50" rx="14" fill="#C8E4FC"/>
<path d="M33 15.5C33.2765 15.5 33.5 15.276 33.5 15C33.5 14.7245 33.724 14.5 34 14.5C34.2765 14.5 34.5 14.276 34.5 14C34.5 13.724 34.2765 13.5 34 13.5C33.173 13.5 32.5 14.173 32.5 15C32.5 15.276 32.7235 15.5 33 15.5Z" fill="#224674"/>
<path d="M25 34.5C24.173 34.5 23.5 35.173 23.5 36C23.5 36.276 23.7235 36.5 24 36.5C24.2765 36.5 24.5 36.276 24.5 36C24.5 35.7245 24.724 35.5 25 35.5C25.2765 35.5 25.5 35.276 25.5 35C25.5 34.724 25.2765 34.5 25 34.5Z" fill="#224674"/>
<path d="M34 31C34.2765 31 34.5 30.776 34.5 30.5C34.5 29.9485 34.9485 29.5 35.5 29.5C35.7765 29.5 36 29.276 36 29C36 28.724 35.7765 28.5 35.5 28.5C34.397 28.5 33.5 29.397 33.5 30.5C33.5 30.776 33.7235 31 34 31Z" fill="#224674"/>
<path d="M25.2949 34.5303C25.9826 34.6672 26.5 35.2753 26.5 36C26.5 36.8277 25.8277 37.5 25 37.5C24.1723 37.5 23.5 36.8277 23.5 36C23.5 35.2753 24.0174 34.6672 24.7051 34.5303L25 34.4717L25.2949 34.5303ZM14.5 29C15.0452 29 15.5438 29.2252 15.9092 29.5918L16.1533 29.8369L16.2959 30.126C16.4265 30.3919 16.5 30.6871 16.5 31C16.5 32.1027 15.6027 33 14.5 33C13.3973 33 12.5 32.1027 12.5 31C12.5 29.8973 13.3973 29 14.5 29ZM35.5 28.5C36.6027 28.5 37.5 29.3973 37.5 30.5C37.5 31.6027 36.6027 32.5 35.5 32.5C34.3973 32.5 33.5 31.6027 33.5 30.5C33.5 30.2121 33.5635 29.935 33.6787 29.6787L33.8105 29.3838L34.0449 29.1348C34.4125 28.7424 34.9287 28.5 35.5 28.5ZM25 19.5C26.0011 19.5 26.9188 19.8696 27.6211 20.4805L27.9121 20.7334L28.165 21.0605C28.6881 21.7362 29 22.5794 29 23.5C29 24.1768 28.829 24.8152 28.5293 25.3789L28.3525 25.71L28.0879 26.0322C27.43 26.8309 26.4772 27.3665 25.3955 27.4736L24.9932 27.5127L24.6035 27.4746C23.5677 27.3723 22.6485 26.8767 21.998 26.1328L21.7314 25.8281L21.5342 25.4863C21.1946 24.9 21 24.2251 21 23.5C21 22.5389 21.3397 21.6574 21.9062 20.9658L22.1562 20.6602L22.4668 20.4062C23.1582 19.8395 24.039 19.5 25 19.5ZM20.6387 21.2012C20.6351 21.1992 20.6306 21.197 20.626 21.1943C20.6232 21.1927 20.6205 21.1904 20.6172 21.1885C20.6264 21.1938 20.6335 21.1984 20.6387 21.2012ZM27.4199 19.2139C27.4179 19.2174 27.4141 19.224 27.416 19.2207C27.4165 19.2199 27.42 19.2131 27.4248 19.2051C27.4273 19.2009 27.4306 19.1957 27.4346 19.1895C27.4273 19.2012 27.4223 19.2098 27.4199 19.2139ZM22.6787 19.1006C22.6891 19.1174 22.6966 19.1314 22.7012 19.1396C22.7035 19.1439 22.706 19.1476 22.707 19.1494L22.708 19.1514C22.7077 19.1509 22.7063 19.1488 22.7051 19.1465L22.6777 19.0996L22.6787 19.1006ZM16 12.5C17.1027 12.5 18 13.3973 18 14.5C18 14.9343 17.8616 15.3325 17.627 15.6592L17.4326 15.9287L17.1582 16.127C16.832 16.3618 16.4342 16.5 16 16.5C14.8973 16.5 14 15.6027 14 14.5C14 13.3973 14.8973 12.5 16 12.5ZM34 13.5C34.8277 13.5 35.5 14.1723 35.5 15C35.5 15.8277 34.8277 16.5 34 16.5C33.6758 16.5 33.3759 16.3977 33.1309 16.2236L32.8955 16.0566L32.7305 15.792C32.5839 15.5579 32.5 15.2897 32.5 15C32.5 14.1723 33.1723 13.5 34 13.5Z" stroke="#224674" stroke-width="2"/>
</svg>
