<svg width="50" height="50" viewBox="0 0 50 50" fill="none" xmlns="http://www.w3.org/2000/svg">
<rect width="50" height="50" rx="14" fill="#C8E4FC"/>
<path d="M31.34 23.6459L32.2183 23.1678L32.2183 23.1678L31.34 23.6459ZM33.0449 26.7778L32.1666 27.2559L32.1666 27.2559L33.0449 26.7778ZM36.5391 37.795L37.3918 38.3175L37.3957 38.3111L36.5391 37.795ZM36.5187 37.8283L37.3708 38.3518L37.3714 38.3508L36.5187 37.8283ZM13.4812 37.8283L12.6276 38.3493L12.6292 38.3518L13.4812 37.8283ZM13.4609 37.795L12.6043 38.3111L12.6073 38.316L13.4609 37.795ZM16.955 26.7778L17.8333 27.2559L17.8333 27.2559L16.955 26.7778ZM18.6599 23.6459L17.7816 23.1678L17.7816 23.1678L18.6599 23.6459ZM20.2334 30.0392C19.7011 30.1864 19.3889 30.7373 19.5362 31.2696C19.6834 31.8019 20.2342 32.114 20.7665 31.9668L20.2334 30.0392ZM20.7796 31.9632C21.3119 31.816 21.624 31.2651 21.4768 30.7328C21.3296 30.2005 20.7787 29.8884 20.2464 30.0356L20.7796 31.9632ZM29.2338 33.0391C28.7015 33.186 28.389 33.7368 28.536 34.2691C28.683 34.8015 29.2337 35.1139 29.7661 34.9669L29.2338 33.0391ZM29.7791 34.9633C30.3115 34.8164 30.6239 34.2656 30.4769 33.7333C30.33 33.2009 29.7792 32.8885 29.2469 33.0355L29.7791 34.9633ZM19 9C18.4477 9 18 9.44772 18 10C18 10.5523 18.4477 11 19 11V9ZM31 11C31.5522 11 32 10.5523 32 10C32 9.44772 31.5522 9 31 9V11ZM17.4944 23.6794C17.1326 24.0967 17.1776 24.7282 17.5949 25.09C18.0122 25.4518 18.6438 25.4068 19.0055 24.9895L17.4944 23.6794ZM25 25.4773L24.5046 26.346L24.5046 26.346L25 25.4773ZM32.6504 24.8579C32.8906 24.3606 32.6823 23.7627 32.185 23.5224C31.6877 23.2821 31.0898 23.4905 30.8496 23.9877L32.6504 24.8579ZM28.8107 10H27.8107V13.7293H28.8107H29.8107V10H28.8107ZM28.8107 13.7293H27.8107C27.8107 16.3027 27.8036 17.7599 28.1627 19.1679L29.1317 18.9207L30.1007 18.6736C29.8178 17.5645 29.8107 16.3998 29.8107 13.7293H28.8107ZM29.1317 18.9207L28.1627 19.1679C28.5217 20.5753 29.2268 21.8557 30.4617 24.1241L31.34 23.6459L32.2183 23.1678C30.9368 20.8139 30.3837 19.7831 30.1007 18.6736L29.1317 18.9207ZM31.34 23.6459L30.4617 24.1241L32.1666 27.2559L33.0449 26.7778L33.9232 26.2997L32.2183 23.1678L31.34 23.6459ZM33.0449 26.7778L32.1666 27.2559C33.786 30.2305 34.9428 32.3611 35.5482 34.0193C36.1493 35.6657 36.1048 36.5781 35.6826 37.2789L36.5391 37.795L37.3957 38.3111C38.2886 36.829 38.1002 35.1775 37.4269 33.3334C36.758 31.5011 35.5101 29.2146 33.9232 26.2997L33.0449 26.7778ZM36.5391 37.795L35.6865 37.2725L35.6661 37.3058L36.5187 37.8283L37.3714 38.3508L37.3918 38.3175L36.5391 37.795ZM36.5187 37.8283L35.6667 37.3048C35.2348 38.0078 34.4274 38.4818 32.661 38.739C30.886 38.9974 28.4277 39 25 39V40V41C28.3618 41 30.9957 41.0026 32.9492 40.7181C34.9111 40.4324 36.4683 39.8205 37.3708 38.3518L36.5187 37.8283ZM25 40V39C21.5722 39 19.1139 38.9974 17.3389 38.739C15.5725 38.4818 14.7651 38.0078 14.3332 37.3048L13.4812 37.8283L12.6292 38.3518C13.5316 39.8205 15.0888 40.4324 17.0507 40.7181C19.0042 41.0026 21.6381 41 25 41V40ZM13.4812 37.8283L14.3348 37.3073L14.3144 37.274L13.4609 37.795L12.6073 38.316L12.6276 38.3493L13.4812 37.8283ZM13.4609 37.795L14.3174 37.2789C13.8952 36.5781 13.8507 35.6657 14.4518 34.0193C15.0571 32.3611 16.2139 30.2305 17.8333 27.2559L16.955 26.7778L16.0767 26.2997C14.4898 29.2146 13.242 31.5011 12.573 33.3334C11.8998 35.1775 11.7114 36.829 12.6043 38.3111L13.4609 37.795ZM16.955 26.7778L17.8333 27.2559L19.5382 24.1241L18.6599 23.6459L17.7816 23.1678L16.0767 26.2997L16.955 26.7778ZM18.6599 23.6459L19.5382 24.1241C20.7731 21.8557 21.4782 20.5753 21.8372 19.1679L20.8682 18.9207L19.8992 18.6736C19.6162 19.7831 19.0631 20.8139 17.7816 23.1678L18.6599 23.6459ZM20.8682 18.9207L21.8372 19.1679C22.1963 17.7599 22.1892 16.3027 22.1892 13.7293H21.1892H20.1892C20.1892 16.3998 20.1821 17.5645 19.8992 18.6736L20.8682 18.9207ZM21.1892 13.7293H22.1892V10H21.1892H20.1892V13.7293H21.1892ZM20.5 31.003L20.7665 31.9668L20.7796 31.9632L20.513 30.9994L20.2464 30.0356L20.2334 30.0392L20.5 31.003ZM29.5 34.003L29.7661 34.9669L29.7791 34.9633L29.513 33.9994L29.2469 33.0355L29.2338 33.0391L29.5 34.003ZM19 10V11H31V10V9H19V10ZM18.25 24.3344L19.0055 24.9895C19.2438 24.7147 19.4848 24.5872 19.7423 24.5331C20.0211 24.4745 20.385 24.4894 20.8656 24.6149C21.858 24.8742 23.0534 25.5184 24.5046 26.346L25 25.4773L25.4954 24.6086C24.0956 23.8104 22.666 23.0181 21.3711 22.6799C20.7082 22.5067 20.0128 22.4325 19.3309 22.5759C18.6276 22.7237 18.0062 23.0891 17.4944 23.6794L18.25 24.3344ZM25 25.4773L24.5046 26.346C26.5527 27.514 28.3364 27.7264 29.7869 27.292C31.2195 26.863 32.1721 25.8477 32.6504 24.8579L31.75 24.4228L30.8496 23.9877C30.5778 24.5501 30.0305 25.1313 29.2131 25.3761C28.4136 25.6156 27.1973 25.5792 25.4954 24.6086L25 25.4773Z" fill="#104576"/>
</svg>
