<svg width="16" height="17" viewBox="0 0 16 17" fill="none" xmlns="http://www.w3.org/2000/svg">
<path d="M5.5 4.33398C5.22667 4.33398 5 4.10732 5 3.83398V1.83398C5 1.56065 5.22667 1.33398 5.5 1.33398C5.77333 1.33398 6 1.56065 6 1.83398V3.83398C6 4.10732 5.77333 4.33398 5.5 4.33398Z" fill="#224674"/>
<path d="M10.5 4.33398C10.2267 4.33398 10 4.10732 10 3.83398V1.83398C10 1.56065 10.2267 1.33398 10.5 1.33398C10.7733 1.33398 11 1.56065 11 1.83398V3.83398C11 4.10732 10.7733 4.33398 10.5 4.33398Z" fill="#224674"/>
<path d="M7.9999 9.89398C8.34657 9.89398 8.5999 9.68732 8.5999 9.36065C8.5999 9.02732 8.34657 8.83398 7.9999 8.83398C7.65324 8.83398 7.3999 9.02732 7.3999 9.36065C7.3999 9.68732 7.65324 9.89398 7.9999 9.89398Z" fill="#224674"/>
<path d="M7.99999 11.8337C8.41973 11.8337 8.75999 11.5562 8.75999 11.2137C8.75999 10.8713 8.41973 10.5938 7.99999 10.5938C7.58025 10.5938 7.23999 10.8713 7.23999 11.2137C7.23999 11.5562 7.58025 11.8337 7.99999 11.8337Z" fill="#224674"/>
<path d="M13.0467 3.50065C12.6067 3.17398 11.9734 3.48732 11.9734 4.04065V4.10732C11.9734 4.88732 11.4134 5.60732 10.6334 5.68732C9.73341 5.78065 8.97341 5.07398 8.97341 4.19398V3.50065C8.97341 3.13398 8.67341 2.83398 8.30675 2.83398H7.69341C7.32675 2.83398 7.02675 3.13398 7.02675 3.50065V4.19398C7.02675 4.72065 6.75341 5.18732 6.34008 5.44732C6.28008 5.48732 6.21341 5.52065 6.14675 5.55398C6.08675 5.58732 6.02008 5.61398 5.94675 5.63398C5.86675 5.66065 5.78008 5.68065 5.68675 5.68732C5.58008 5.70065 5.47341 5.70065 5.36675 5.68732C5.27341 5.68065 5.18675 5.66065 5.10675 5.63398C5.04008 5.61398 4.97341 5.58732 4.90675 5.55398C4.84008 5.52065 4.77341 5.48732 4.71341 5.44732C4.29341 5.15398 4.02675 4.64732 4.02675 4.10732V4.04065C4.02675 3.52732 3.48008 3.22065 3.04675 3.44065C3.04008 3.44732 3.03341 3.44732 3.02675 3.45398C3.00008 3.46732 2.98008 3.48065 2.95341 3.50065C2.93341 3.52065 2.90675 3.53398 2.88675 3.55398C2.70008 3.70065 2.53341 3.86732 2.39341 4.04732C2.32008 4.12732 2.26008 4.21398 2.20675 4.30065C2.20008 4.30732 2.19341 4.31398 2.18675 4.32732C2.12675 4.41398 2.07341 4.51398 2.02675 4.60732C2.01341 4.62065 2.00675 4.62732 2.00675 4.64065C1.96675 4.72065 1.92675 4.80065 1.90008 4.88732C1.88008 4.92065 1.87341 4.94732 1.86008 4.98065C1.82008 5.08065 1.79341 5.18065 1.76675 5.28065C1.74008 5.37398 1.72008 5.47398 1.70675 5.57398C1.69341 5.64732 1.68675 5.72065 1.68008 5.80065C1.67341 5.89398 1.66675 5.98732 1.66675 6.08065V11.9207C1.66675 13.714 3.12008 15.1673 4.91341 15.1673H11.0867C12.8801 15.1673 14.3334 13.714 14.3334 11.9207V6.08065C14.3334 5.02065 13.8267 4.09398 13.0467 3.50065ZM8.00008 12.6673C6.96675 12.6673 6.33341 12.154 6.33341 11.3273C6.33341 10.874 6.56675 10.4807 6.97341 10.2473C6.68008 10.0407 6.48675 9.73398 6.48675 9.31398C6.48675 8.44732 7.18008 8.00065 8.00008 8.00065C8.82008 8.00065 9.50675 8.44732 9.50675 9.31398C9.50675 9.73398 9.32008 10.0407 9.02008 10.2473C9.43341 10.4807 9.66675 10.874 9.66675 11.3273C9.66675 12.154 9.02675 12.6673 8.00008 12.6673Z" fill="#224674"/>
</svg>
