<svg width="32" height="32" viewBox="0 0 32 32" fill="none" xmlns="http://www.w3.org/2000/svg">
<path d="M28 30.334H4C3.45333 30.334 3 29.8807 3 29.334C3 28.7873 3.45333 28.334 4 28.334H28C28.5467 28.334 29 28.7873 29 29.334C29 29.8807 28.5467 30.334 28 30.334Z" fill="#DD6F94"/>
<path d="M7.46663 26.3338H5.33333C4.05333 26.3338 3 25.2805 3 24.0005V12.5072C3 11.2272 4.05333 10.1738 5.33333 10.1738H7.46663C8.74663 10.1738 9.79997 11.2272 9.79997 12.5072V24.0005C9.79997 25.2805 8.74663 26.3338 7.46663 26.3338ZM5.33333 12.1605C5.14667 12.1605 5 12.3071 5 12.4938V24.0005C5 24.1872 5.14667 24.3338 5.33333 24.3338H7.46663C7.6533 24.3338 7.79997 24.1872 7.79997 24.0005V12.5072C7.79997 12.3205 7.6533 12.1738 7.46663 12.1738H5.33333V12.1605Z" fill="#DD6F94"/>
<path d="M17.0682 26.3333H14.9349C13.6549 26.3333 12.6016 25.2799 12.6016 23.9999V8.25326C12.6016 6.97326 13.6549 5.91992 14.9349 5.91992H17.0682C18.3482 5.91992 19.4015 6.97326 19.4015 8.25326V23.9999C19.4015 25.2799 18.3482 26.3333 17.0682 26.3333ZM14.9349 7.91992C14.7482 7.91992 14.6016 8.06659 14.6016 8.25326V23.9999C14.6016 24.1866 14.7482 24.3333 14.9349 24.3333H17.0682C17.2549 24.3333 17.4015 24.1866 17.4015 23.9999V8.25326C17.4015 8.06659 17.2549 7.91992 17.0682 7.91992H14.9349Z" fill="#DD6F94"/>
<path d="M26.6659 26.3327H24.5326C23.2526 26.3327 22.1992 25.2794 22.1992 23.9993V3.99935C22.1992 2.71935 23.2526 1.66602 24.5326 1.66602H26.6659C27.9459 1.66602 28.9992 2.71935 28.9992 3.99935V23.9993C28.9992 25.2794 27.9459 26.3327 26.6659 26.3327ZM24.5326 3.66602C24.3459 3.66602 24.1992 3.81268 24.1992 3.99935V23.9993C24.1992 24.186 24.3459 24.3327 24.5326 24.3327H26.6659C26.8525 24.3327 26.9992 24.186 26.9992 23.9993V3.99935C26.9992 3.81268 26.8525 3.66602 26.6659 3.66602H24.5326Z" fill="#DD6F94"/>
</svg>
