<svg width="32" height="32" viewBox="0 0 32 32" fill="none" xmlns="http://www.w3.org/2000/svg">
<path d="M16.0013 30.3327C8.09464 30.3327 1.66797 23.906 1.66797 15.9993C1.66797 8.09268 8.09464 1.66602 16.0013 1.66602C23.908 1.66602 30.3346 8.09268 30.3346 15.9993C30.3346 23.906 23.908 30.3327 16.0013 30.3327ZM16.0013 3.66602C9.2013 3.66602 3.66797 9.19935 3.66797 15.9993C3.66797 22.7993 9.2013 28.3327 16.0013 28.3327C22.8013 28.3327 28.3346 22.7993 28.3346 15.9993C28.3346 9.19935 22.8013 3.66602 16.0013 3.66602Z" fill="#DD6F94"/>
<path d="M20.9462 21.2403C20.7729 21.2403 20.5995 21.2003 20.4395 21.0937L16.3062 18.627C15.2795 18.0137 14.5195 16.667 14.5195 15.4803V10.0137C14.5195 9.46701 14.9729 9.01367 15.5195 9.01367C16.0662 9.01367 16.5195 9.46701 16.5195 10.0137V15.4803C16.5195 15.9603 16.9195 16.667 17.3329 16.907L21.4662 19.3737C21.9462 19.6537 22.0929 20.267 21.8129 20.747C21.6129 21.067 21.2795 21.2403 20.9462 21.2403Z" fill="#DD6F94"/>
</svg>
