<svg width="32" height="32" viewBox="0 0 32 32" fill="none" xmlns="http://www.w3.org/2000/svg">
<path d="M21.332 30.3327H10.6654C6.6387 30.3327 4.33203 28.026 4.33203 23.9993V10.9993C4.33203 6.79935 6.46536 4.66602 10.6654 4.66602C11.212 4.66602 11.6654 5.11935 11.6654 5.66602C11.6654 6.19935 11.8787 6.70601 12.252 7.07935C12.6254 7.45268 13.132 7.66602 13.6654 7.66602H18.332C19.4387 7.66602 20.332 6.77268 20.332 5.66602C20.332 5.11935 20.7854 4.66602 21.332 4.66602C25.532 4.66602 27.6654 6.79935 27.6654 10.9993V23.9993C27.6654 28.026 25.3587 30.3327 21.332 30.3327ZM9.79867 6.69269C7.692 6.86602 6.33203 7.81268 6.33203 10.9993V23.9993C6.33203 26.9594 7.70536 28.3327 10.6654 28.3327H21.332C24.292 28.3327 25.6654 26.9594 25.6654 23.9993V10.9993C25.6654 7.81268 24.3054 6.87935 22.1987 6.69269C21.7454 8.39935 20.1854 9.66602 18.332 9.66602H13.6654C12.5987 9.66602 11.5987 9.25268 10.8387 8.49268C10.332 7.98601 9.98533 7.37269 9.79867 6.69269Z" fill="#DD6F94"/>
<path d="M18.3346 9.66602H13.668C12.6013 9.66602 11.6013 9.25268 10.8413 8.49268C10.0813 7.73268 9.66797 6.73268 9.66797 5.66602C9.66797 3.46602 11.468 1.66602 13.668 1.66602H18.3346C19.4013 1.66602 20.4013 2.07936 21.1613 2.83936C21.9213 3.59936 22.3346 4.59935 22.3346 5.66602C22.3346 7.86602 20.5346 9.66602 18.3346 9.66602ZM13.668 3.66602C12.5613 3.66602 11.668 4.55935 11.668 5.66602C11.668 6.19935 11.8813 6.70601 12.2546 7.07935C12.628 7.45268 13.1346 7.66602 13.668 7.66602H18.3346C19.4413 7.66602 20.3346 6.77268 20.3346 5.66602C20.3346 5.13268 20.1213 4.62602 19.748 4.25269C19.3746 3.87935 18.868 3.66602 18.3346 3.66602H13.668Z" fill="#DD6F94"/>
<path d="M16.0013 18.334H10.668C10.1213 18.334 9.66797 17.8807 9.66797 17.334C9.66797 16.7873 10.1213 16.334 10.668 16.334H16.0013C16.548 16.334 17.0013 16.7873 17.0013 17.334C17.0013 17.8807 16.548 18.334 16.0013 18.334Z" fill="#DD6F94"/>
<path d="M21.3346 23.666H10.668C10.1213 23.666 9.66797 23.2127 9.66797 22.666C9.66797 22.1193 10.1213 21.666 10.668 21.666H21.3346C21.8813 21.666 22.3346 22.1193 22.3346 22.666C22.3346 23.2127 21.8813 23.666 21.3346 23.666Z" fill="#DD6F94"/>
</svg>
