<svg width="32" height="32" viewBox="0 0 32 32" fill="none" xmlns="http://www.w3.org/2000/svg">
<path d="M28.0013 15.6668H4.0013C2.7213 15.6668 1.66797 14.6135 1.66797 13.3335V8.90684C1.66797 8.00017 2.2946 7.08018 3.1346 6.74684L15.1346 1.94688C15.6413 1.74687 16.3613 1.74687 16.868 1.94688L28.868 6.74684C29.708 7.08018 30.3346 8.0135 30.3346 8.90684V13.3335C30.3346 14.6135 29.2813 15.6668 28.0013 15.6668ZM16.0013 3.78688C15.948 3.78688 15.8947 3.78681 15.868 3.80015L3.88127 8.6002C3.80127 8.6402 3.66797 8.8135 3.66797 8.90684V13.3335C3.66797 13.5202 3.81464 13.6668 4.0013 13.6668H28.0013C28.188 13.6668 28.3346 13.5202 28.3346 13.3335V8.90684C28.3346 8.8135 28.2147 8.6402 28.1213 8.6002L16.1213 3.80015C16.0947 3.78681 16.0546 3.78688 16.0013 3.78688Z" fill="#DD6F94"/>
<path d="M29.3346 30.3333H2.66797C2.1213 30.3333 1.66797 29.88 1.66797 29.3333V25.3333C1.66797 24.0533 2.7213 23 4.0013 23H28.0013C29.2813 23 30.3346 24.0533 30.3346 25.3333V29.3333C30.3346 29.88 29.8813 30.3333 29.3346 30.3333ZM3.66797 28.3333H28.3346V25.3333C28.3346 25.1467 28.188 25 28.0013 25H4.0013C3.81464 25 3.66797 25.1467 3.66797 25.3333V28.3333Z" fill="#DD6F94"/>
<path d="M5.33203 24.9993C4.78536 24.9993 4.33203 24.546 4.33203 23.9993V14.666C4.33203 14.1193 4.78536 13.666 5.33203 13.666C5.8787 13.666 6.33203 14.1193 6.33203 14.666V23.9993C6.33203 24.546 5.8787 24.9993 5.33203 24.9993Z" fill="#DD6F94"/>
<path d="M10.668 24.9993C10.1213 24.9993 9.66797 24.546 9.66797 23.9993V14.666C9.66797 14.1193 10.1213 13.666 10.668 13.666C11.2146 13.666 11.668 14.1193 11.668 14.666V23.9993C11.668 24.546 11.2146 24.9993 10.668 24.9993Z" fill="#DD6F94"/>
<path d="M16 24.9993C15.4533 24.9993 15 24.546 15 23.9993V14.666C15 14.1193 15.4533 13.666 16 13.666C16.5467 13.666 17 14.1193 17 14.666V23.9993C17 24.546 16.5467 24.9993 16 24.9993Z" fill="#DD6F94"/>
<path d="M21.332 24.9993C20.7854 24.9993 20.332 24.546 20.332 23.9993V14.666C20.332 14.1193 20.7854 13.666 21.332 13.666C21.8787 13.666 22.332 14.1193 22.332 14.666V23.9993C22.332 24.546 21.8787 24.9993 21.332 24.9993Z" fill="#DD6F94"/>
<path d="M26.668 24.9993C26.1213 24.9993 25.668 24.546 25.668 23.9993V14.666C25.668 14.1193 26.1213 13.666 26.668 13.666C27.2146 13.666 27.668 14.1193 27.668 14.666V23.9993C27.668 24.546 27.2146 24.9993 26.668 24.9993Z" fill="#DD6F94"/>
<path d="M30.6654 30.334H1.33203C0.785365 30.334 0.332031 29.8807 0.332031 29.334C0.332031 28.7873 0.785365 28.334 1.33203 28.334H30.6654C31.212 28.334 31.6654 28.7873 31.6654 29.334C31.6654 29.8807 31.212 30.334 30.6654 30.334Z" fill="#DD6F94"/>
<path d="M16 12.334C14.3467 12.334 13 10.9873 13 9.33398C13 7.68065 14.3467 6.33398 16 6.33398C17.6533 6.33398 19 7.68065 19 9.33398C19 10.9873 17.6533 12.334 16 12.334ZM16 8.33398C15.4533 8.33398 15 8.78732 15 9.33398C15 9.88065 15.4533 10.334 16 10.334C16.5467 10.334 17 9.88065 17 9.33398C17 8.78732 16.5467 8.33398 16 8.33398Z" fill="#DD6F94"/>
</svg>
