<svg width="32" height="32" viewBox="0 0 32 32" fill="none" xmlns="http://www.w3.org/2000/svg">
<path d="M24 6.5C24.2765 6.5 24.5 6.276 24.5 6C24.5 5.7245 24.724 5.5 25 5.5C25.2765 5.5 25.5 5.276 25.5 5C25.5 4.724 25.2765 4.5 25 4.5C24.173 4.5 23.5 5.173 23.5 6C23.5 6.276 23.7235 6.5 24 6.5Z" fill="#DD6F94"/>
<path d="M16 25.5C15.173 25.5 14.5 26.173 14.5 27C14.5 27.276 14.7235 27.5 15 27.5C15.2765 27.5 15.5 27.276 15.5 27C15.5 26.7245 15.724 26.5 16 26.5C16.2765 26.5 16.5 26.276 16.5 26C16.5 25.724 16.2765 25.5 16 25.5Z" fill="#DD6F94"/>
<path d="M25 22C25.2765 22 25.5 21.776 25.5 21.5C25.5 20.9485 25.9485 20.5 26.5 20.5C26.7765 20.5 27 20.276 27 20C27 19.724 26.7765 19.5 26.5 19.5C25.397 19.5 24.5 20.397 24.5 21.5C24.5 21.776 24.7235 22 25 22Z" fill="#DD6F94"/>
<path d="M16.2949 25.5303C16.9826 25.6672 17.5 26.2753 17.5 27C17.5 27.8277 16.8277 28.5 16 28.5C15.1723 28.5 14.5 27.8277 14.5 27C14.5 26.2753 15.0174 25.6672 15.7051 25.5303L16 25.4717L16.2949 25.5303ZM5.5 20C6.04517 20 6.54383 20.2252 6.90918 20.5918L7.15332 20.8369L7.2959 21.126C7.42653 21.3919 7.5 21.6871 7.5 22C7.5 23.1027 6.60272 24 5.5 24C4.39728 24 3.5 23.1027 3.5 22C3.5 20.8973 4.39728 20 5.5 20ZM26.5 19.5C27.6027 19.5 28.5 20.3973 28.5 21.5C28.5 22.6027 27.6027 23.5 26.5 23.5C25.3973 23.5 24.5 22.6027 24.5 21.5C24.5 21.2121 24.5635 20.935 24.6787 20.6787L24.8105 20.3838L25.0449 20.1348C25.4125 19.7424 25.9287 19.5 26.5 19.5ZM16 10.5C17.0011 10.5 17.9188 10.8696 18.6211 11.4805L18.9121 11.7334L19.165 12.0605C19.6881 12.7362 20 13.5794 20 14.5C20 15.1768 19.829 15.8152 19.5293 16.3789L19.3525 16.71L19.0879 17.0322C18.43 17.8309 17.4772 18.3665 16.3955 18.4736L15.9932 18.5127L15.6035 18.4746C14.5677 18.3723 13.6485 17.8767 12.998 17.1328L12.7314 16.8281L12.5342 16.4863C12.1946 15.9 12 15.2251 12 14.5C12 13.5389 12.3397 12.6574 12.9062 11.9658L13.1562 11.6602L13.4668 11.4062C14.1582 10.8395 15.039 10.5 16 10.5ZM11.6387 12.2012C11.6351 12.1992 11.6306 12.197 11.626 12.1943C11.6232 12.1927 11.6205 12.1904 11.6172 12.1885C11.6264 12.1938 11.6335 12.1984 11.6387 12.2012ZM18.4199 10.2139C18.4179 10.2174 18.4141 10.224 18.416 10.2207C18.4165 10.2199 18.42 10.2131 18.4248 10.2051C18.4273 10.2009 18.4306 10.1957 18.4346 10.1895C18.4273 10.2012 18.4223 10.2098 18.4199 10.2139ZM13.6787 10.1006C13.6891 10.1174 13.6966 10.1314 13.7012 10.1396C13.7035 10.1439 13.706 10.1476 13.707 10.1494L13.708 10.1514C13.7077 10.1509 13.7063 10.1488 13.7051 10.1465L13.6777 10.0996L13.6787 10.1006ZM7 3.5C8.10272 3.5 9 4.39728 9 5.5C9 5.9343 8.86156 6.33246 8.62695 6.65918L8.43262 6.92871L8.1582 7.12695C7.83204 7.36182 7.43423 7.5 7 7.5C5.89728 7.5 5 6.60272 5 5.5C5 4.39728 5.89728 3.5 7 3.5ZM25 4.5C25.8277 4.5 26.5 5.17228 26.5 6C26.5 6.82772 25.8277 7.5 25 7.5C24.6758 7.5 24.3759 7.39768 24.1309 7.22363L23.8955 7.05664L23.7305 6.79199C23.5839 6.55792 23.5 6.28972 23.5 6C23.5 5.17228 24.1723 4.5 25 4.5Z" stroke="#DD6F94" stroke-width="2"/>
</svg>
