<svg width="32" height="32" viewBox="0 0 32 32" fill="none" xmlns="http://www.w3.org/2000/svg">
<path d="M22.8013 1.66602H17.2013C11.988 1.66602 9.66797 3.98602 9.66797 9.19935V10.666C9.66797 11.2127 10.1213 11.666 10.668 11.666H14.8013C18.9346 11.666 20.3346 13.066 20.3346 17.1993V21.3327C20.3346 21.8793 20.788 22.3327 21.3346 22.3327H22.8013C28.0146 22.3327 30.3346 20.0127 30.3346 14.7993V9.19935C30.3346 3.98602 28.0146 1.66602 22.8013 1.66602ZM11.668 9.66602V9.19935C11.668 5.06602 13.068 3.66602 17.2013 3.66602H22.8013C26.9346 3.66602 28.3346 5.06602 28.3346 9.19935V14.7993C28.3346 18.9327 26.9346 20.3327 22.8013 20.3327H22.3346V17.1993C22.3346 11.986 20.0146 9.66602 14.8013 9.66602H11.668Z" fill="#DD6F94"/>
<path d="M14.8013 9.66602H9.2013C3.98797 9.66602 1.66797 11.986 1.66797 17.1993V22.7993C1.66797 28.0127 3.98797 30.3327 9.2013 30.3327H14.8013C20.0146 30.3327 22.3346 28.0127 22.3346 22.7993V17.1993C22.3346 11.986 20.0146 9.66602 14.8013 9.66602ZM9.2013 28.3327C5.06797 28.3327 3.66797 26.9327 3.66797 22.7993V17.1993C3.66797 13.066 5.06797 11.666 9.2013 11.666H14.8013C18.9346 11.666 20.3346 13.066 20.3346 17.1993V22.7993C20.3346 26.9327 18.9346 28.3327 14.8013 28.3327H9.2013Z" fill="#DD6F94"/>
<path d="M10.706 23.5994C10.4527 23.5994 10.1994 23.506 9.99937 23.306L7.39937 20.706C7.01271 20.3193 7.01271 19.6794 7.39937 19.2927C7.78604 18.906 8.42604 18.906 8.81271 19.2927L10.706 21.186L15.186 16.706C15.5727 16.3193 16.2127 16.3193 16.5994 16.706C16.986 17.0927 16.986 17.7327 16.5994 18.1193L11.3994 23.306C11.2127 23.4927 10.9594 23.5994 10.706 23.5994Z" fill="#DD6F94"/>
</svg>
