<svg width="32" height="32" viewBox="0 0 32 32" fill="none" xmlns="http://www.w3.org/2000/svg">
<path d="M16 27C9.93333 27 5 22.0667 5 16C5 9.93333 9.93333 5 16 5C22.0667 5 27 9.93333 27 16C27 22.0667 22.0667 27 16 27ZM16 7C11.04 7 7 11.04 7 16C7 20.96 11.04 25 16 25C20.96 25 25 20.96 25 16C25 11.04 20.96 7 16 7Z" fill="#DD6F94"/>
<path d="M16 21C13.24 21 11 18.76 11 16C11 13.24 13.24 11 16 11C18.76 11 21 13.24 21 16C21 18.76 18.76 21 16 21ZM16 13C14.3467 13 13 14.3467 13 16C13 17.6533 14.3467 19 16 19C17.6533 19 19 17.6533 19 16C19 14.3467 17.6533 13 16 13Z" fill="#DD6F94"/>
<path d="M16 6.33268C15.4533 6.33268 15 5.87935 15 5.33268V2.66602C15 2.11935 15.4533 1.66602 16 1.66602C16.5467 1.66602 17 2.11935 17 2.66602V5.33268C17 5.87935 16.5467 6.33268 16 6.33268Z" fill="#DD6F94"/>
<path d="M5.33464 17H2.66797C2.1213 17 1.66797 16.5467 1.66797 16C1.66797 15.4533 2.1213 15 2.66797 15H5.33464C5.8813 15 6.33464 15.4533 6.33464 16C6.33464 16.5467 5.8813 17 5.33464 17Z" fill="#DD6F94"/>
<path d="M16 30.3327C15.4533 30.3327 15 29.8794 15 29.3327V26.666C15 26.1193 15.4533 25.666 16 25.666C16.5467 25.666 17 26.1193 17 26.666V29.3327C17 29.8794 16.5467 30.3327 16 30.3327Z" fill="#DD6F94"/>
<path d="M29.3346 17H26.668C26.1213 17 25.668 16.5467 25.668 16C25.668 15.4533 26.1213 15 26.668 15H29.3346C29.8813 15 30.3346 15.4533 30.3346 16C30.3346 16.5467 29.8813 17 29.3346 17Z" fill="#DD6F94"/>
</svg>
