<svg width="32" height="32" viewBox="0 0 32 32" fill="none" xmlns="http://www.w3.org/2000/svg">
<path d="M16 19.6667C15.4533 19.6667 15 19.2133 15 18.6667V12C15 11.4533 15.4533 11 16 11C16.5467 11 17 11.4533 17 12V18.6667C17 19.2133 16.5467 19.6667 16 19.6667Z" fill="#DD6F94"/>
<path d="M16.0013 24.0001C15.9213 24.0001 15.828 23.9867 15.7346 23.9734C15.6546 23.9601 15.5746 23.9334 15.4946 23.8934C15.4146 23.8667 15.3346 23.8267 15.2546 23.7734C15.188 23.7201 15.1213 23.6667 15.0546 23.6134C14.8146 23.3601 14.668 23.0134 14.668 22.6667C14.668 22.3201 14.8146 21.9734 15.0546 21.7201C15.1213 21.6667 15.188 21.6134 15.2546 21.5601C15.3346 21.5067 15.4146 21.4667 15.4946 21.4401C15.5746 21.4001 15.6546 21.3734 15.7346 21.3601C15.908 21.3201 16.0946 21.3201 16.2546 21.3601C16.348 21.3734 16.428 21.4001 16.508 21.4401C16.588 21.4667 16.668 21.5067 16.748 21.5601C16.8146 21.6134 16.8813 21.6667 16.948 21.7201C17.188 21.9734 17.3346 22.3201 17.3346 22.6667C17.3346 23.0134 17.188 23.3601 16.948 23.6134C16.8813 23.6667 16.8146 23.7201 16.748 23.7734C16.668 23.8267 16.588 23.8667 16.508 23.8934C16.428 23.9334 16.348 23.9601 16.2546 23.9734C16.1746 23.9867 16.0813 24.0001 16.0013 24.0001Z" fill="#DD6F94"/>
<path d="M24.0819 29.5465H7.92192C5.32192 29.5465 3.33525 28.5998 2.32192 26.8931C1.32192 25.1865 1.45525 22.9865 2.72192 20.7065L10.8019 6.17313C12.1353 3.77313 13.9753 2.45312 16.0019 2.45312C18.0286 2.45312 19.8686 3.77313 21.2019 6.17313L29.2819 20.7198C30.5486 22.9998 30.6953 25.1865 29.6819 26.9065C28.6686 28.5998 26.6819 29.5465 24.0819 29.5465ZM16.0019 4.45312C14.7486 4.45312 13.5219 5.41313 12.5486 7.14646L4.48192 21.6931C3.57525 23.3198 3.42859 24.8131 4.05525 25.8931C4.68192 26.9731 6.06859 27.5598 7.93525 27.5598H24.0953C25.9619 27.5598 27.3353 26.9731 27.9753 25.8931C28.6153 24.8131 28.4553 23.3331 27.5486 21.6931L19.4553 7.14646C18.4819 5.41313 17.2553 4.45312 16.0019 4.45312Z" fill="#DD6F94"/>
</svg>
