<svg width="40" height="40" viewBox="0 0 40 40" fill="none" xmlns="http://www.w3.org/2000/svg">
<rect width="40" height="40" rx="20" fill="#F2F5F7"/>
<path d="M17.5704 26.8201C17.3804 26.8201 17.1904 26.7501 17.0404 26.6001L10.9704 20.5301C10.6804 20.2401 10.6804 19.7601 10.9704 19.4701L17.0404 13.4001C17.3304 13.1101 17.8104 13.1101 18.1004 13.4001C18.3904 13.6901 18.3904 14.1701 18.1004 14.4601L12.5604 20.0001L18.1004 25.5401C18.3904 25.8301 18.3904 26.3101 18.1004 26.6001C17.9604 26.7501 17.7604 26.8201 17.5704 26.8201Z" fill="#25292A"/>
<path d="M28.4999 20.75H11.6699C11.2599 20.75 10.9199 20.41 10.9199 20C10.9199 19.59 11.2599 19.25 11.6699 19.25H28.4999C28.9099 19.25 29.2499 19.59 29.2499 20C29.2499 20.41 28.9099 20.75 28.4999 20.75Z" fill="#25292A"/>
</svg>
