<svg width="40" height="41" viewBox="0 0 40 41" fill="none" xmlns="http://www.w3.org/2000/svg">
<rect y="0.5" width="40" height="40" rx="20" fill="#F2F5F7"/>
<path d="M17.5695 27.3201C17.3795 27.3201 17.1895 27.2501 17.0395 27.1001L10.9695 21.0301C10.6795 20.7401 10.6795 20.2601 10.9695 19.9701L17.0395 13.9001C17.3295 13.6101 17.8095 13.6101 18.0995 13.9001C18.3895 14.1901 18.3895 14.6701 18.0995 14.9601L12.5595 20.5001L18.0995 26.0401C18.3895 26.3301 18.3895 26.8101 18.0995 27.1001C17.9595 27.2501 17.7595 27.3201 17.5695 27.3201Z" fill="#25292A"/>
<path d="M28.4999 21.25H11.6699C11.2599 21.25 10.9199 20.91 10.9199 20.5C10.9199 20.09 11.2599 19.75 11.6699 19.75H28.4999C28.9099 19.75 29.2499 20.09 29.2499 20.5C29.2499 20.91 28.9099 21.25 28.4999 21.25Z" fill="#25292A"/>
</svg>
