<svg width="40" height="40" viewBox="0 0 40 40" fill="none" xmlns="http://www.w3.org/2000/svg">
<rect width="40" height="40" rx="20" fill="#F2F5F7"/>
<path d="M23.2605 30.2503H16.7405C11.8305 30.2503 9.73047 28.1503 9.73047 23.2403V23.1103C9.73047 18.6703 11.4805 16.5303 15.4005 16.1603C15.8005 16.1303 16.1805 16.4303 16.2205 16.8403C16.2605 17.2503 15.9605 17.6203 15.5405 17.6603C12.4005 17.9503 11.2305 19.4303 11.2305 23.1203V23.2503C11.2305 27.3203 12.6705 28.7603 16.7405 28.7603H23.2605C27.3305 28.7603 28.7705 27.3203 28.7705 23.2503V23.1203C28.7705 19.4103 27.5805 17.9303 24.3805 17.6603C23.9705 17.6203 23.6605 17.2603 23.7005 16.8503C23.7405 16.4403 24.0905 16.1303 24.5105 16.1703C28.4905 16.5103 30.2705 18.6603 30.2705 23.1303V23.2603C30.2705 28.1503 28.1705 30.2503 23.2605 30.2503Z" fill="#25292A"/>
<path d="M20 23.7501C19.59 23.7501 19.25 23.4101 19.25 23.0001V11.6201C19.25 11.2101 19.59 10.8701 20 10.8701C20.41 10.8701 20.75 11.2101 20.75 11.6201V23.0001C20.75 23.4101 20.41 23.7501 20 23.7501Z" fill="#25292A"/>
<path d="M23.3498 14.6004C23.1598 14.6004 22.9698 14.5304 22.8198 14.3804L19.9998 11.5604L17.1798 14.3804C16.8898 14.6704 16.4098 14.6704 16.1198 14.3804C15.8298 14.0904 15.8298 13.6104 16.1198 13.3204L19.4698 9.97043C19.7598 9.68043 20.2398 9.68043 20.5298 9.97043L23.8798 13.3204C24.1698 13.6104 24.1698 14.0904 23.8798 14.3804C23.7398 14.5304 23.5398 14.6004 23.3498 14.6004Z" fill="#25292A"/>
</svg>
