<svg width="40" height="40" viewBox="0 0 40 40" fill="none" xmlns="http://www.w3.org/2000/svg">
<path d="M30.1159 17.2004C29.7992 17.2004 29.4826 17.0837 29.2326 16.8337L19.9992 7.60039L10.7659 16.8337C10.2826 17.3171 9.48255 17.3171 8.99922 16.8337C8.51589 16.3504 8.51589 15.5504 8.99922 15.0671L19.1159 4.95039C19.5992 4.46706 20.3992 4.46706 20.8826 4.95039L30.9992 15.0671C31.4826 15.5504 31.4826 16.3504 30.9992 16.8337C30.7659 17.0837 30.4325 17.2004 30.1159 17.2004Z" fill="white"/>
<path d="M20 35.4162C19.3167 35.4162 18.75 34.8495 18.75 34.1662V6.11621C18.75 5.43288 19.3167 4.86621 20 4.86621C20.6833 4.86621 21.25 5.43288 21.25 6.11621V34.1662C21.25 34.8495 20.6833 35.4162 20 35.4162Z" fill="white"/>
</svg>
