<svg width="17" height="17" viewBox="0 0 17 17" fill="none" xmlns="http://www.w3.org/2000/svg">
<path d="M8.4987 1.83301C4.82536 1.83301 1.83203 4.82634 1.83203 8.49967C1.83203 12.173 4.82536 15.1663 8.4987 15.1663C12.172 15.1663 15.1654 12.173 15.1654 8.49967C15.1654 4.82634 12.172 1.83301 8.4987 1.83301ZM11.6854 6.96634L7.90536 10.7463C7.81203 10.8397 7.68536 10.893 7.55203 10.893C7.4187 10.893 7.29203 10.8397 7.1987 10.7463L5.31203 8.85967C5.1187 8.66634 5.1187 8.34634 5.31203 8.15301C5.50536 7.95967 5.82536 7.95967 6.0187 8.15301L7.55203 9.68634L10.9787 6.25967C11.172 6.06634 11.492 6.06634 11.6854 6.25967C11.8787 6.45301 11.8787 6.76634 11.6854 6.96634Z" fill="#1C8F5D"/>
</svg>
