<svg width="17" height="16" viewBox="0 0 17 16" fill="none" xmlns="http://www.w3.org/2000/svg">
<path d="M8.5 9.83333C8.22667 9.83333 8 9.60667 8 9.33333V6C8 5.72667 8.22667 5.5 8.5 5.5C8.77333 5.5 9 5.72667 9 6V9.33333C9 9.60667 8.77333 9.83333 8.5 9.83333Z" fill="#A18233"/>
<path d="M8.4987 12C8.4587 12 8.41203 11.9934 8.36536 11.9867C8.32536 11.98 8.28536 11.9667 8.24536 11.9467C8.20536 11.9334 8.16536 11.9134 8.12536 11.8867C8.09203 11.86 8.0587 11.8334 8.02536 11.8067C7.90536 11.68 7.83203 11.5067 7.83203 11.3334C7.83203 11.16 7.90536 10.9867 8.02536 10.86C8.0587 10.8334 8.09203 10.8067 8.12536 10.78C8.16536 10.7534 8.20536 10.7334 8.24536 10.72C8.28536 10.7 8.32536 10.6867 8.36536 10.68C8.45203 10.66 8.54536 10.66 8.62536 10.68C8.67203 10.6867 8.71203 10.7 8.75203 10.72C8.79203 10.7334 8.83203 10.7534 8.87203 10.78C8.90536 10.8067 8.9387 10.8334 8.97203 10.86C9.09203 10.9867 9.16536 11.16 9.16536 11.3334C9.16536 11.5067 9.09203 11.68 8.97203 11.8067C8.9387 11.8334 8.90536 11.86 8.87203 11.8867C8.83203 11.9134 8.79203 11.9334 8.75203 11.9467C8.71203 11.9667 8.67203 11.98 8.62536 11.9867C8.58536 11.9934 8.5387 12 8.4987 12Z" fill="#A18233"/>
<path d="M12.539 14.7732H4.45901C3.15901 14.7732 2.16567 14.2999 1.65901 13.4466C1.15901 12.5932 1.22567 11.4932 1.85901 10.3532L5.89901 3.08656C6.56567 1.88656 7.48567 1.22656 8.49901 1.22656C9.51234 1.22656 10.4323 1.88656 11.099 3.08656L15.139 10.3599C15.7723 11.4999 15.8457 12.5932 15.339 13.4532C14.8323 14.2999 13.839 14.7732 12.539 14.7732ZM8.49901 2.22656C7.87234 2.22656 7.25901 2.70656 6.77234 3.57323L2.73901 10.8466C2.28567 11.6599 2.21234 12.4066 2.52567 12.9466C2.83901 13.4866 3.53234 13.7799 4.46567 13.7799H12.5457C13.479 13.7799 14.1657 13.4866 14.4857 12.9466C14.8057 12.4066 14.7257 11.6666 14.2723 10.8466L10.2257 3.57323C9.73901 2.70656 9.12567 2.22656 8.49901 2.22656Z" fill="#A18233"/>
</svg>
