<svg width="33" height="32" viewBox="0 0 33 32" fill="none" xmlns="http://www.w3.org/2000/svg">
<path d="M16.3267 31.463C24.867 31.463 31.7902 24.5398 31.7902 15.9996C31.7902 7.45936 24.867 0.536133 16.3267 0.536133C7.7865 0.536133 0.863281 7.45936 0.863281 15.9996C0.863281 24.5398 7.7865 31.463 16.3267 31.463Z" fill="#C8E4FC"/>
<mask id="mask0_2303_30679" style="mask-type:luminance" maskUnits="userSpaceOnUse" x="0" y="0" width="32" height="32">
<path d="M16.3267 31.463C24.867 31.463 31.7902 24.5398 31.7902 15.9996C31.7902 7.45936 24.867 0.536133 16.3267 0.536133C7.7865 0.536133 0.863281 7.45936 0.863281 15.9996C0.863281 24.5398 7.7865 31.463 16.3267 31.463Z" fill="white"/>
</mask>
<g mask="url(#mask0_2303_30679)">
<path d="M21.4125 24.3211C21.0453 24.4713 20.6781 24.6215 20.3109 24.7717C20.1086 24.9722 19.8299 24.9833 19.5801 25.0667C18.2387 25.4215 16.8883 25.452 15.5296 25.1801C15.4961 25.1734 15.4638 25.1623 15.4326 25.149C15.2768 25.0888 15.0969 25.1084 14.9535 25.0061C14.7403 24.741 14.7369 24.7256 14.9433 24.4736C15.0388 24.3568 15.0566 24.213 15.1098 24.0813C15.1423 24.0007 15.1417 23.9042 15.2157 23.8416C15.3775 23.8093 15.5265 23.8755 15.6776 23.9092C17.2134 24.2525 18.724 24.1354 20.1694 23.544C22.7206 22.5004 24.2897 20.6064 24.8203 17.893C25.0594 16.6703 24.943 15.4549 24.5836 14.2631C24.5543 14.1659 24.503 14.0727 24.5217 13.9653C24.5541 13.9087 24.6102 13.8741 24.6652 13.854C24.895 13.7701 24.9908 13.5915 25.0594 13.3709C25.1657 13.0293 25.197 13.0251 25.4845 13.2193C25.6139 13.3855 25.6573 13.5896 25.7198 13.7822C25.8974 14.3297 26.0093 14.8929 26.0835 15.4638C26.1762 15.8558 26.0618 16.2458 26.0687 16.6379C26.0748 16.9813 26.1765 17.3243 26.0852 17.6698C26.0663 17.7413 26.0603 17.8168 26.0391 17.8881C25.9428 18.7116 25.7016 19.4946 25.3543 20.2444C24.8769 21.275 24.2206 22.1801 23.3946 22.9594C23.0006 23.3311 22.5766 23.6666 22.1089 23.9435C21.878 24.0715 21.6769 24.2547 21.4125 24.3211Z" fill="#224674"/>
<path d="M22.9317 9.71679C22.977 9.78103 23.0673 9.8041 23.0896 9.88932C22.9419 10.109 22.9613 10.3801 22.866 10.6163C22.8021 10.7747 22.7484 10.9375 22.5408 10.9562C22.413 10.9303 22.3307 10.8319 22.2374 10.7555C21.6208 10.2508 20.9531 9.83408 20.2038 9.55426C19.4138 9.25088 18.6014 9.07529 17.7515 9.03824C16.8893 9.00066 16.052 9.10871 15.2234 9.33006C15.0562 9.37473 14.8981 9.4303 14.782 9.56712C14.6841 9.53806 14.7109 9.44965 14.6972 9.3827C14.6538 9.1708 14.544 9.10314 14.3327 9.151C14.2032 9.18034 14.0898 9.27503 13.9463 9.24698C13.8919 9.12273 14.0052 9.10285 14.0693 9.05797C14.1308 9.01498 14.2117 9.01456 14.2785 8.98047C14.3651 8.93632 14.4272 8.87552 14.383 8.77035C14.3415 8.67155 14.2839 8.587 14.1526 8.6291C14.1202 8.63947 14.089 8.65289 14.0565 8.66289C13.7974 8.74277 13.6922 8.6451 13.7395 8.36837C13.9957 8.2024 14.2851 8.11696 14.5731 8.03346C15.3303 7.81386 16.1 7.67947 16.8912 7.63686C17.4142 7.6087 17.9267 7.64332 18.4418 7.70582C18.6355 7.74675 18.8346 7.75219 19.0281 7.79824C19.1292 7.82232 19.2252 7.85173 19.3116 7.90944C20.4389 8.16109 21.4613 8.64384 22.4008 9.30957C22.6271 9.38105 22.7902 9.53489 22.9317 9.71679Z" fill="#224674"/>
<path d="M11.9986 23.5423C11.2409 23.0119 10.6164 22.3488 10.0705 21.6073C10.0261 21.5469 9.98111 21.4868 9.93637 21.4266C9.72731 21.286 9.65506 21.0449 9.51505 20.8533C8.90767 19.7739 8.55448 18.6144 8.41966 17.3861C8.40401 17.2435 8.40739 17.1001 8.4094 16.9566C8.4071 16.6007 8.41286 16.2452 8.40408 15.8895C8.39956 15.7067 8.39528 15.5185 8.51005 15.3569C8.55178 15.1794 8.58528 15.0007 8.58988 14.8177C8.57872 14.5243 8.64209 14.2496 8.79472 13.9971L8.80183 14.0006C8.90365 13.9982 8.95146 14.0838 9.01112 14.1403C9.11852 14.2421 9.17335 14.3858 9.3517 14.4271C9.45501 14.4511 9.43132 14.6285 9.49317 14.7246C9.509 14.9211 9.43614 15.1047 9.41158 15.2956C9.31362 15.9545 9.27512 16.6151 9.34708 17.2793C9.35225 17.3269 9.35572 17.3748 9.35031 17.4225C9.37238 17.9822 9.52353 18.5182 9.65382 19.0577C9.71754 19.38 9.85878 19.6767 9.9652 19.9849C9.99828 20.0807 10.0462 20.1729 10.1108 20.253C10.244 20.4183 10.3974 20.4258 10.5422 20.2748C10.5843 20.2309 10.6157 20.1761 10.6748 20.1504C10.752 20.1365 10.7843 20.19 10.8143 20.245C11.1936 20.9389 11.6802 21.5511 12.2353 22.1112C12.2548 22.1357 12.2688 22.1627 12.2731 22.1941C12.2728 22.2618 12.225 22.282 12.1716 22.3031C11.9036 22.4089 11.6791 22.8361 11.7385 23.118C11.758 23.2106 11.8163 23.2721 11.8833 23.3322C11.9449 23.3875 12.0374 23.4303 11.9986 23.5423Z" fill="#224674"/>
<path d="M25.9805 17.9439C26.1102 17.2149 26.0453 16.4792 26.0572 15.7461C26.059 15.6365 25.9949 15.5347 26.0256 15.4233C26.0743 15.3263 26.174 15.3075 26.2615 15.2736C26.9409 15.0106 27.5788 14.6734 28.1619 14.2336C28.6471 13.8676 29.0637 13.4401 29.3837 12.9212C29.4192 12.8635 29.4458 12.7985 29.5031 12.7562C29.5563 12.7415 29.5986 12.7671 29.6325 12.8008C29.7606 12.9279 29.9052 13.0282 30.0743 13.0931C30.1065 13.1055 30.1322 13.1296 30.1253 13.1712C30.072 13.1751 30.044 13.2083 30.0169 13.2517C29.4092 14.2273 28.5376 14.9065 27.5441 15.4477C27.1227 15.6772 26.6827 15.8659 26.2316 16.0276C26.1247 16.0659 26.0741 16.1125 26.0942 16.2333C26.1098 16.3267 26.1183 16.4284 26.0983 16.5195C26.0046 16.9482 26.2321 17.1926 26.5399 17.449C27.5147 18.2612 28.2621 19.2486 28.6406 20.4749C29.0733 21.8767 28.8364 23.1627 27.9048 24.3091C27.8905 24.3256 27.8724 24.3336 27.8506 24.3331C27.6755 24.2042 27.4628 24.1143 27.3836 23.885C27.5381 23.6283 27.7348 23.3987 27.856 23.12C28.2909 22.1199 28.2141 21.1342 27.7824 20.1572C27.4274 19.3537 26.8749 18.6978 26.2401 18.1041C26.1644 18.0332 26.0805 17.9755 25.9805 17.9439Z" fill="#0D84BD"/>
<path d="M9.45249 14.6954C9.41447 14.6762 9.37769 14.6486 9.37752 14.6057C9.37703 14.4872 9.3558 14.4028 9.20482 14.4449C9.16465 14.4561 9.11155 14.4324 9.10495 14.3918C9.07437 14.2038 8.88958 14.1397 8.80078 13.9999C9.27131 12.4132 10.1097 11.055 11.3287 9.93344C11.434 9.83658 11.5389 9.73923 11.6439 9.64212C11.9277 9.33398 12.2897 9.13257 12.6382 8.91243C12.6734 8.89346 12.7094 8.87801 12.7506 8.89223C12.8108 8.93055 12.8275 8.98831 12.8092 9.05216C12.7685 9.1942 12.8616 9.18134 12.9453 9.16962C13.1076 9.14689 13.2128 9.01646 13.2475 8.89249C13.3026 8.69619 13.4397 8.58952 13.5708 8.46569C13.6147 8.42368 13.6569 8.37607 13.7266 8.41703C13.7872 8.7535 13.9815 8.64272 14.177 8.55674C14.3376 8.48607 14.3689 8.64094 14.4287 8.72598C14.4943 8.81918 14.4881 8.90835 14.3829 8.98777C14.2444 9.09241 14.0312 9.05322 13.9328 9.22858C13.888 9.30536 13.8085 9.32698 13.7329 9.35504C13.1989 9.47339 12.7965 9.80532 12.4134 10.1685C12.1972 10.4175 11.9177 10.5959 11.686 10.8296C10.7228 11.8013 10.0439 12.9398 9.64117 14.2457C9.59324 14.4011 9.54159 14.5565 9.45249 14.6954Z" fill="#224674"/>
<path d="M27.4112 23.8988C27.5635 24.0373 27.7157 24.1759 27.8679 24.3144C28.1542 24.6699 28.2456 25.0778 28.1868 25.5233C28.1051 26.1431 27.6413 26.6202 27.0213 26.7681C26.3577 26.9265 25.8056 26.6183 25.4817 26.1056C25.3714 25.9311 25.3242 25.7301 25.2785 25.5313C25.2643 25.4694 25.2612 25.4086 25.1887 25.3863C25.0925 25.3682 24.989 25.3996 24.8984 25.3434C24.9278 25.2977 24.9762 25.2871 25.0236 25.2846C25.1344 25.2788 25.1728 25.2117 25.1922 25.1135C25.2173 24.9863 25.243 24.8577 25.3181 24.7467C25.5097 24.4919 25.6714 24.2161 25.9534 24.0349C26.2962 23.8146 26.6635 23.7698 27.0521 23.8187C27.1529 23.8314 27.2539 23.8516 27.3545 23.87C27.3759 23.8746 27.3948 23.8843 27.4112 23.8988Z" fill="#DD6F94"/>
<path d="M6.28496 9.48353C6.27272 9.45449 6.26048 9.42546 6.24824 9.39642C6.01792 9.34145 5.78781 9.29619 5.588 9.14855C5.11575 8.79959 4.91312 8.33039 4.98774 7.75967C5.06737 7.15065 5.41875 6.7191 6.00274 6.54097C6.66049 6.34035 7.4044 6.69585 7.68182 7.39131C7.95616 8.07905 7.72468 8.79581 7.10391 9.20167C7.04113 9.24271 6.96767 9.26562 6.91257 9.31856C6.91115 9.3312 6.90774 9.34328 6.90235 9.3548C6.71531 9.48761 6.48902 9.43225 6.28496 9.48353Z" fill="#DD6F94"/>
<path d="M16.0383 4.05385C15.9814 3.51483 16.1954 3.10176 16.655 2.83529C17.0669 2.59646 17.4985 2.61371 17.8987 2.875C18.5589 3.30611 18.6406 4.23544 18.0787 4.80256C18.0405 4.84117 18.0004 4.87797 17.9612 4.91561C17.807 5.10598 17.5963 5.16821 17.3632 5.17717C17.2813 5.18032 17.1992 5.17817 17.1173 5.17844C16.7843 5.16153 16.5247 4.99464 16.2918 4.7732C16.1091 4.56815 16.0216 4.3293 16.0383 4.05385Z" fill="white"/>
<path d="M3.48864 20.2528C2.94758 20.4286 2.4845 20.2973 2.12777 19.8636C1.7879 19.4504 1.74951 18.9799 1.97848 18.4996C2.25292 17.924 2.88228 17.7052 3.56776 17.9316C3.82112 17.98 3.97657 18.1579 4.12216 18.3495C4.42167 18.8545 4.4199 19.3518 4.08386 19.8405C3.91771 20.0242 3.75862 20.2187 3.48864 20.2528Z" fill="white"/>
<path d="M9.4218 26.5393C9.36258 27.1587 8.90422 27.6504 8.32571 27.7151C7.77752 27.7764 7.21996 27.4052 7.04638 26.8634C6.85642 26.2704 7.09987 25.6522 7.64021 25.3556C8.14782 25.0769 8.81165 25.2205 9.1675 25.6879C9.22521 25.7637 9.27498 25.8456 9.32842 25.9246C9.48554 26.1104 9.5186 26.315 9.4218 26.5393Z" fill="#DD6F94"/>
<path d="M16.039 4.05371C16.0867 4.30684 16.1755 4.54379 16.3178 4.75957C16.3212 4.87322 16.2242 4.9038 16.1525 4.94635C14.69 5.81368 13.6599 7.07353 12.8721 8.55352C12.8018 8.68574 12.7339 8.81931 12.6595 8.94938C12.3212 9.18021 11.9828 9.41103 11.6445 9.64181C12.0478 8.45764 12.6517 7.38358 13.4376 6.41331C14.1329 5.55493 14.9531 4.83603 15.9089 4.27805C16.0057 4.22154 16.0501 4.16025 16.039 4.05371Z" fill="#0B84BB"/>
<path d="M30.1257 13.1706C29.8871 13.0904 29.6899 12.9489 29.5229 12.7629C29.4261 12.7495 29.3969 12.6676 29.3626 12.5967C29.252 12.3686 29.1916 12.1289 29.2134 11.8729C29.2719 11.6674 29.2546 11.4284 29.4678 11.2904C29.8169 10.7725 30.4635 10.5967 31.0009 10.8735C31.5411 11.1519 31.802 11.8043 31.603 12.3795C31.3992 12.9683 30.7991 13.3155 30.2061 13.1875C30.1793 13.1817 30.1525 13.1762 30.1257 13.1706Z" fill="white"/>
<path d="M3.48828 20.2521C3.68266 20.1306 3.88419 20.0182 4.02627 19.8301C4.27242 19.9774 4.47376 20.1856 4.72647 20.3269C5.43166 20.7212 6.19143 20.9193 6.98889 21.0056C7.78007 21.0913 8.55721 21.0129 9.3295 20.8435C9.40898 20.8261 9.49063 20.8038 9.56909 20.8508C9.69141 21.0425 9.81373 21.2342 9.93593 21.4258C9.03696 21.6579 8.12376 21.7721 7.19618 21.7167C5.965 21.6432 4.81395 21.321 3.81729 20.558C3.69836 20.467 3.58159 20.3716 3.48828 20.2521Z" fill="#0C80BC"/>
<path d="M6.28558 9.48358C6.29885 9.43424 6.32311 9.39144 6.38106 9.39841C6.55841 9.41972 6.72738 9.34877 6.90298 9.35487C7.10328 11.0631 7.77979 12.5797 8.76256 13.9729C8.76983 13.9832 8.78401 13.9886 8.79496 13.9963C8.72667 14.2699 8.6584 14.5434 8.59011 14.817C8.32251 14.5308 8.1204 14.1974 7.91541 13.8674C7.17301 12.6725 6.60666 11.405 6.35342 10.0116C6.32169 9.83706 6.28055 9.66312 6.28558 9.48358Z" fill="#0D83BD"/>
<path d="M4.06647 18.3541C3.93583 18.1715 3.74827 18.056 3.56836 17.9315C3.81249 17.5792 4.13673 17.3063 4.47042 17.0474C5.54376 16.215 6.77447 15.7309 8.08916 15.4387C8.2288 15.4077 8.36999 15.3837 8.51045 15.3564C8.44343 15.8981 8.47219 16.4426 8.4612 16.9859C8.35592 16.9663 8.37833 16.8777 8.37536 16.812C8.36733 16.6347 8.36869 16.4569 8.37364 16.2796C8.37735 16.1466 8.33872 16.0912 8.19388 16.1249C6.93548 16.4172 5.75539 16.8798 4.74452 17.7086C4.55463 17.8642 4.39112 18.0499 4.2201 18.2264C4.17361 18.2744 4.14219 18.3411 4.06647 18.3541Z" fill="#0C83BB"/>
<path d="M24.9496 7.17776C24.8607 6.77016 24.9043 6.38957 25.1848 6.06062C25.5726 5.60562 26.2174 5.53803 26.695 5.89991C27.1783 6.26618 27.2832 6.94252 26.9366 7.45788C26.6045 7.95177 25.9615 8.09651 25.4543 7.79133C25.4076 7.76324 25.3619 7.73367 25.3156 7.70479C25.0883 7.60227 24.979 7.41773 24.9496 7.17776Z" fill="#DD6F94"/>
<path d="M18.3684 28.4581C18.5148 29.0346 18.3885 29.4466 17.9786 29.7298C17.6289 29.9715 17.1471 29.9647 16.8056 29.7135C16.4484 29.4507 16.306 28.987 16.4453 28.5404C16.4545 28.2099 16.6767 28.0494 16.9394 27.9208C17.2493 27.7894 17.5594 27.7374 17.8698 27.9194C18.0912 28.0477 18.3191 28.1704 18.3684 28.4581Z" fill="white"/>
<path d="M29.467 11.2914C29.3454 11.466 29.3195 11.6756 29.2542 11.8708C29.1534 11.9476 29.0434 11.9129 28.9394 11.8884C28.5058 11.7862 28.0628 11.7283 27.6216 11.7269C26.8639 11.7245 26.1095 11.7957 25.3738 11.9983C25.2359 12.0363 25.1001 12.0842 24.9556 12.0926C24.7165 11.9631 24.5903 11.7547 24.5391 11.494C25.5784 11.1763 26.6369 10.9937 27.7282 11.0351C28.2629 11.0554 28.7889 11.1308 29.3069 11.264C29.3592 11.2774 29.4136 11.2825 29.467 11.2914Z" fill="#0C7EB9"/>
<path d="M9.42152 26.5397C9.4356 26.3279 9.38264 26.1263 9.32812 25.925C10.6413 25.653 11.8468 25.1318 12.9439 24.3609C12.9928 24.3266 13.0508 24.2976 13.0732 24.2345C13.12 24.2033 13.1691 24.218 13.2075 24.2428C13.4021 24.368 13.6555 24.3899 13.8097 24.5854C13.7274 24.5832 13.6741 24.6369 13.6131 24.6812C12.3493 25.601 10.9667 26.254 9.42152 26.5397Z" fill="#0D83BD"/>
<path d="M18.3679 28.4593C18.2466 28.2566 18.093 28.0865 17.8789 27.9779C18.1107 27.71 18.3606 27.458 18.5588 27.1611C18.9532 26.5705 19.2488 25.9345 19.4606 25.2579C19.4885 25.1689 19.499 25.0662 19.5976 25.0157C19.8353 24.9343 20.0729 24.8529 20.3106 24.7715C19.995 26.1756 19.3894 27.427 18.3679 28.4593Z" fill="#0A82BB"/>
<path d="M25.3551 24.767C25.3193 24.8818 25.2575 24.9958 25.2536 25.1117C25.247 25.31 25.1614 25.3707 24.9792 25.3367C24.9538 25.332 24.9259 25.3402 24.8992 25.3425C23.7101 25.2075 22.5754 24.8787 21.487 24.3852C21.4581 24.372 21.4369 24.3419 21.4121 24.3197C21.6342 24.1822 21.8563 24.0447 22.0784 23.9072C22.1406 23.909 22.1989 23.924 22.2568 23.9481C23.1719 24.3294 24.1249 24.5636 25.1083 24.6793C25.1877 24.7164 25.2915 24.6855 25.3551 24.767Z" fill="#0D81BD"/>
<path d="M16.9341 27.981C16.6851 28.0926 16.5259 28.2829 16.4439 28.5407C16.4709 28.441 16.3944 28.3961 16.3389 28.3387C15.4163 27.3851 14.9092 26.2325 14.709 24.9332C14.8046 24.8402 14.8786 24.9271 14.9587 24.9631C15.098 25.0478 15.2707 25.0142 15.4123 25.0909C15.4425 25.1211 15.4565 25.1586 15.4648 25.1997C15.6767 26.2431 16.1228 27.1629 16.8951 27.9106C16.9152 27.93 16.9284 27.9534 16.9341 27.981Z" fill="#0E86BF"/>
<path d="M22.521 10.9163C22.6977 10.9236 22.7713 10.7686 22.7932 10.6604C22.8361 10.4491 22.9598 10.2557 22.9352 10.0289C22.9239 9.92477 22.991 9.88385 23.0896 9.88912C23.518 10.3219 23.9879 10.7161 24.3304 11.2284C24.3716 11.29 24.4119 11.3523 24.4527 11.4143C24.4005 11.5365 24.3904 11.6756 24.3427 11.7922C24.2264 12.0767 23.9975 12.2501 23.686 12.3001C23.5612 12.2406 23.5114 12.1127 23.4267 12.0165C23.2024 11.6902 22.929 11.4074 22.6476 11.131C22.5885 11.073 22.4989 11.0253 22.521 10.9163Z" fill="#224674"/>
<path d="M14.9602 24.9637C14.8769 24.9537 14.7937 24.9437 14.7104 24.9338C14.4104 24.8177 14.1104 24.7016 13.8103 24.5855C13.5647 24.4685 13.3192 24.3515 13.0737 24.2345C13.0587 24.2219 13.0437 24.2092 13.0286 24.1964C12.8774 24.029 12.8647 23.9062 13.0418 23.8165C13.3185 23.6763 13.4561 23.4339 13.6018 23.1886C13.6814 23.1518 13.7498 23.1913 13.8155 23.2254C14.2172 23.4339 14.6293 23.6177 15.0595 23.7596C15.1177 23.7788 15.1772 23.7996 15.2079 23.8607C15.1854 24.0824 15.1599 24.3274 15.0023 24.4758C14.8154 24.6518 14.8272 24.7882 14.9602 24.9637Z" fill="#224674"/>
<path d="M23.6751 12.2708C23.9217 12.2033 24.1202 12.0656 24.2661 11.8564C24.2959 11.8137 24.336 11.7443 24.3206 11.7097C24.2504 11.5522 24.3523 11.486 24.4543 11.4141C24.4828 11.4405 24.5114 11.4669 24.5399 11.4933C24.6634 11.6851 24.7869 11.8768 24.9104 12.0685C25.0102 12.1072 25.0308 12.2083 25.0808 12.2859C25.2243 12.5082 25.3116 12.7574 25.4158 12.9983C25.4444 13.0645 25.4761 13.1359 25.4429 13.2125C25.3798 13.2658 25.3649 13.1881 25.3299 13.1689C25.2286 13.1134 25.1737 13.1177 25.1486 13.253C25.1216 13.3987 25.088 13.5539 25.0123 13.6773C24.9107 13.8429 24.7132 13.8897 24.5384 13.9552C24.436 13.8918 24.4196 13.7773 24.3786 13.6792C24.2134 13.2832 24.0154 12.9053 23.7824 12.5448C23.7297 12.4633 23.6485 12.3861 23.6751 12.2708Z" fill="#224674"/>
<path d="M13.6072 23.199C13.5437 23.4477 13.4266 23.657 13.1879 23.7797C12.9317 23.9115 12.919 23.9465 13.029 24.1959C12.6628 24.0139 12.3158 23.8017 11.9994 23.5415C11.9822 23.4699 11.9264 23.4281 11.8737 23.3866C11.6667 23.2235 11.6141 23.0431 11.7109 22.8021C11.7538 22.6955 11.7949 22.587 11.8502 22.4868C11.9225 22.3558 12.0012 22.2247 12.1888 22.2498C12.2278 22.255 12.2415 22.2146 12.2477 22.1794C12.3306 22.1412 12.3747 22.2073 12.4187 22.2516C12.7068 22.5428 13.0433 22.7682 13.3882 22.9844C13.4736 23.038 13.5937 23.0676 13.6072 23.199Z" fill="#224674"/>
<path d="M24.9509 7.17773C25.0437 7.37372 25.1604 7.55307 25.317 7.70478C24.432 8.18422 23.6849 8.83263 23.0195 9.5807C22.9843 9.62026 22.9618 9.67106 22.9333 9.71655C22.7563 9.58074 22.5793 9.445 22.4023 9.30926C23.0665 8.52772 23.8194 7.84922 24.7056 7.32529C24.7877 7.27672 24.8691 7.22695 24.9509 7.17773Z" fill="#0A82BB"/>
<path d="M17.0898 5.12972C17.402 5.14693 17.694 5.08241 17.9611 4.91602C18.6004 5.82845 19.0499 6.82649 19.3115 7.90922C19.0289 7.8604 18.7463 7.81163 18.4637 7.76284C18.4996 7.67804 18.501 7.59569 18.4728 7.50504C18.2377 6.75045 17.9137 6.03992 17.4489 5.39693C17.3825 5.30511 17.3117 5.22896 17.1929 5.21081C17.1468 5.20378 17.0967 5.1914 17.0898 5.12972Z" fill="#0E84BE"/>
<path d="M13.5898 23.168C13.117 22.8544 12.6402 22.546 12.2303 22.1484C12.217 22.1333 12.2036 22.1182 12.1903 22.103C12.121 21.7847 12.1454 21.7356 12.45 21.644C12.5739 21.6067 12.6697 21.5371 12.7486 21.4406C12.818 21.3556 12.891 21.2743 12.9817 21.2129C13.2161 21.0541 13.4068 20.873 13.5092 20.5894C13.5964 20.3478 13.7114 20.3458 13.9562 20.5144C14.1112 20.6488 14.2582 20.792 14.408 20.9319C15.2008 21.6723 16.1478 22.0488 17.2221 22.0381C19.2782 22.0177 20.7409 20.6053 21.2592 18.8766C21.3598 18.541 21.4116 18.1963 21.4367 17.8472C21.442 17.7731 21.4709 17.6837 21.3887 17.6433C21.309 17.6041 21.2494 17.6761 21.1929 17.7238C20.2652 18.5065 19.2024 18.9958 18.0022 19.1759C17.144 19.3047 16.2975 19.2305 15.4658 18.9854C15.3811 18.9604 15.2937 18.9376 15.2256 18.8747C15.1503 18.652 15.1873 18.5354 15.4017 18.4811C16.0743 18.3109 16.5967 17.9021 17.1166 17.4718C17.3609 17.2696 17.5967 17.0425 17.9004 16.9188C18.0453 16.8598 18.0779 16.7306 18.1211 16.5957C18.17 16.4427 18.1421 16.3441 18.0174 16.2401C17.8971 16.1399 17.925 16.0555 18.0776 15.961C18.1752 15.9708 18.2312 16.0453 18.2957 16.1045C19.0839 16.8285 20.3466 16.8646 21.1646 16.2113C21.8058 15.6993 22.1148 14.7881 21.8823 13.9805C21.8079 13.7221 21.7116 13.4755 21.5334 13.2676C21.4756 13.2002 21.4237 13.1271 21.4056 13.0364C21.401 13.0165 21.4023 12.9947 21.3954 12.9762C21.2653 12.6274 21.2982 12.5792 21.6807 12.5995C21.8285 12.6073 21.9679 12.5897 22.096 12.5209C22.2763 12.424 22.4614 12.342 22.6528 12.2689C22.8167 12.2063 22.9077 12.0355 23.0736 11.9563C23.2115 11.8904 23.323 11.86 23.4499 11.9537C23.5192 12.049 23.5885 12.1443 23.6578 12.2396C23.9999 12.7732 24.3174 13.3194 24.5211 13.924C24.7434 14.535 24.8731 15.1645 24.9372 15.8122C24.9649 16.0924 24.9683 16.3704 24.9709 16.6497C24.9799 17.6245 24.7764 18.5594 24.4013 19.4539C23.7316 21.0511 22.6231 22.2622 21.1241 23.1237C20.2664 23.6166 19.3413 23.8934 18.3668 24.0371C17.291 24.1957 16.2359 24.1063 15.1909 23.8292C14.7113 23.6911 14.2561 23.4938 13.8144 23.2631C13.7426 23.2256 13.6648 23.1994 13.5898 23.168Z" fill="#3B6294"/>
<path d="M25.1086 24.7274C24.0978 24.6347 23.1297 24.3747 22.1947 23.9845C22.1507 23.9662 22.105 23.9513 22.0781 23.9074C24.1032 22.5777 25.3948 20.7399 25.9126 18.3674C25.943 18.2278 25.9576 18.0847 25.9796 17.9433C26.0126 17.9159 26.0145 17.83 26.0946 17.9023C27.2631 18.9565 28.1863 20.1432 28.1932 21.8172C28.1965 22.6067 27.9254 23.2996 27.4117 23.8981C27.3982 23.8986 27.3848 23.8996 27.3714 23.9011C26.8386 23.7419 26.3288 23.7515 25.8663 24.1067C25.7027 24.2323 25.5506 24.3741 25.4627 24.5604C25.3842 24.7266 25.278 24.7804 25.1086 24.7274Z" fill="#B4D9F9"/>
<path d="M25.4427 13.2129C25.3057 12.8127 25.1027 12.4432 24.9102 12.0689C26.2576 11.6418 27.6237 11.5414 29.0125 11.8339C29.0923 11.8507 29.1741 11.8585 29.2549 11.8704C29.2726 12.1896 29.3286 12.4973 29.5227 12.7636C29.1675 13.4678 28.6149 13.9901 27.9793 14.435C27.3756 14.8577 26.7139 15.1667 26.0259 15.4234C25.9192 14.7403 25.7805 14.065 25.5317 13.4169C25.5051 13.3477 25.4725 13.2808 25.4427 13.2129Z" fill="#B4D9F9"/>
<path d="M16.9345 27.9809C16.7753 27.9272 16.6921 27.7856 16.5907 27.6706C15.9811 26.9792 15.6185 26.1645 15.4171 25.2725C15.404 25.2146 15.4136 25.1516 15.4126 25.0909C16.2262 25.2526 17.0452 25.3312 17.8761 25.2776C18.4583 25.2401 19.0274 25.1278 19.5971 25.0146C19.4172 25.5967 19.2037 26.1646 18.9054 26.6985C18.6775 27.1065 18.4098 27.4851 18.0891 27.8251C18.0298 27.888 17.9781 27.9675 17.8784 27.9769C17.563 27.8021 17.2485 27.8332 16.9345 27.9809Z" fill="#B4D9F9"/>
<path d="M14.7573 9.5607C14.7903 9.41738 14.8938 9.36117 15.0259 9.32326C15.6888 9.13292 16.3596 9.0113 17.0523 8.97792C18.088 8.92802 19.0855 9.08205 20.0569 9.43258C20.1272 9.45795 20.1944 9.49197 20.263 9.52197C20.3099 9.64435 20.2083 9.65842 20.1373 9.68133C20.0336 9.71476 19.9262 9.73958 19.8197 9.76165C19.0757 9.91588 18.5041 10.383 17.9217 10.8205C17.61 11.0547 17.2562 11.2283 16.9693 11.4939C16.7512 11.6959 16.4907 11.8331 16.2448 11.9923C16.0895 12.0928 15.9215 12.1685 15.7278 12.1682C15.6608 12.1681 15.5782 12.1764 15.5466 12.2429C15.5094 12.3212 15.6091 12.3321 15.6413 12.378C15.6927 12.4512 15.7506 12.5204 15.6906 12.6158C15.6113 12.6469 15.5445 12.6024 15.4745 12.5796C14.6916 12.3247 13.9676 12.4261 13.3098 12.9347C13.1508 13.0576 13.0401 13.223 12.9164 13.3768C12.8696 13.435 12.8352 13.5034 12.7677 13.543C12.7453 13.5587 12.7054 13.5613 12.6981 13.5833C12.6164 13.8309 12.4492 14.0546 12.4428 14.3205C12.4368 14.5737 12.4142 14.6365 12.1607 14.7144C12.1073 14.7308 12.047 14.744 12.0181 14.7899C11.877 15.0141 11.6366 15.1636 11.5435 15.4232C11.5319 15.4556 11.5199 15.4974 11.4906 15.5089C11.3105 15.5796 11.2212 15.7555 11.0756 15.8604C10.9145 15.9765 10.7442 16.0761 10.6182 16.2351C10.5677 16.2988 10.4886 16.3006 10.4112 16.3049C10.0993 16.3222 10.0108 16.4232 10.0006 16.7277C9.99607 16.8636 10.0598 17.017 9.92909 17.1326C9.90441 17.129 9.88683 17.1161 9.87552 17.094C9.80983 16.8332 9.83402 16.5671 9.84921 16.3058C9.86918 15.9622 9.8898 15.6163 9.97107 15.2793C10.2446 13.8333 10.8617 12.5622 11.87 11.4794C12.4504 10.8562 13.1079 10.3455 13.8682 9.96478C13.9478 9.9249 14.0286 9.88769 14.1136 9.86068C14.3411 9.78837 14.5706 9.72049 14.7573 9.5607Z" fill="#3B6294"/>
<path d="M15.7016 12.5984C15.6529 12.4972 15.6373 12.3777 15.4938 12.343C15.3978 12.3199 15.4081 12.2418 15.4794 12.1924C15.5337 12.1547 15.6035 12.1147 15.6653 12.1164C16.108 12.1284 16.4092 11.8278 16.7341 11.6095C16.9793 11.4447 17.2038 11.2403 17.4546 11.0779C17.9741 10.7414 18.4451 10.3368 18.9829 10.0241C19.3273 9.82393 19.7037 9.74828 20.075 9.64397C20.1542 9.62171 20.2409 9.62515 20.2634 9.52148C21.1095 9.83565 21.8405 10.3361 22.5223 10.9163C22.8366 11.273 23.2066 11.5806 23.4669 11.9851C23.1996 11.9491 22.9947 12.049 22.8426 12.2684C22.8244 12.2946 22.7957 12.3244 22.7671 12.3308C22.4984 12.3903 22.2712 12.5455 22.0231 12.6517C21.8616 12.7208 21.7021 12.6709 21.5423 12.681C21.3631 12.6923 21.34 12.7292 21.4128 12.8912C21.4347 12.9399 21.5448 12.9827 21.4406 13.0552C21.3264 13.057 21.2541 12.9755 21.1768 12.913C20.4037 12.2877 19.34 12.3108 18.519 12.8483C18.4675 12.882 18.4185 12.9192 18.3572 12.9335C18.1001 12.9879 17.9335 13.1651 17.7848 13.3624C17.637 13.5585 17.4279 13.6548 17.2007 13.696C17.0917 13.7158 17.0252 13.7378 16.9931 13.8458C16.9723 13.916 16.95 14.0033 16.8409 13.9402C16.7902 13.9005 16.7696 13.8421 16.7461 13.7857C16.5653 13.3509 16.2674 13.0167 15.8741 12.7625C15.8074 12.7194 15.7263 12.6873 15.7016 12.5984Z" fill="#3B6294"/>
<path d="M14.7562 9.56047C14.7063 9.68462 14.6069 9.74972 14.4862 9.79365C12.4306 10.542 11.1495 12.0448 10.3651 14.0293C10.2115 14.4179 10.119 14.8246 10.0249 15.2304C9.99409 15.2948 9.95281 15.3502 9.87278 15.341C9.7558 15.3276 9.64583 15.3513 9.53347 15.3796C9.44912 15.4008 9.36819 15.3882 9.36915 15.2689C9.3969 15.0779 9.42465 14.8869 9.45239 14.6958C9.50556 14.372 9.63478 14.0704 9.7485 13.7673C10.2706 12.3757 11.0847 11.1884 12.258 10.2602C12.3005 10.2265 12.3362 10.1843 12.375 10.146C12.7867 9.80243 13.2176 9.49041 13.7325 9.31553C13.7992 9.28671 13.866 9.25788 13.9327 9.22905C14.0474 9.18863 14.1612 9.14524 14.277 9.10837C14.609 9.00273 14.7726 9.12965 14.7586 9.47919C14.7575 9.50626 14.757 9.53338 14.7562 9.56047Z" fill="#224674"/>
<path d="M17.091 5.1294C17.3443 5.11102 17.4516 5.29229 17.57 5.46912C18.0072 6.12248 18.3355 6.82533 18.5501 7.5817C18.5756 7.67151 18.6121 7.75828 18.4647 7.76249C16.8631 7.56025 15.3151 7.76918 13.8184 8.36999C13.787 8.38261 13.7579 8.4011 13.7277 8.41687C13.6849 8.43572 13.6421 8.45458 13.5993 8.47343C13.3307 8.65139 13.0633 8.83189 12.7423 8.90626C12.7149 8.92069 12.6874 8.93511 12.66 8.94956C12.6262 8.91751 12.6495 8.88652 12.6637 8.8574C13.3903 7.36178 14.3724 6.07923 15.7597 5.13159C15.9445 5.00536 16.1588 4.92349 16.3182 4.75977C16.562 4.91187 16.7866 5.10409 17.091 5.1294Z" fill="#B4D9F9"/>
<path d="M4.06658 18.3544C4.3325 17.9457 4.70464 17.6458 5.09651 17.3712C6.09724 16.6699 7.22205 16.2704 8.41823 16.0195C8.45682 16.3491 8.3892 16.6715 8.46131 16.9864C8.51464 18.2927 8.87284 19.5148 9.47971 20.6682C9.51144 20.7285 9.54008 20.7905 9.57015 20.8516C8.70953 21.0689 7.83738 21.1587 6.95282 21.0619C5.92585 20.9495 4.95867 20.673 4.15207 19.9841C4.10138 19.9408 4.03384 19.9105 4.02734 19.8309C4.36482 19.3474 4.36468 18.8548 4.06658 18.3544Z" fill="#B4D9F9"/>
<path d="M13.9378 20.5715C13.7151 20.4359 13.6216 20.4344 13.5593 20.658C13.4777 20.9508 13.2775 21.1051 13.0578 21.2649C12.9605 21.3356 12.8721 21.4172 12.7973 21.5166C12.7207 21.6185 12.6246 21.7023 12.4838 21.7262C12.3159 21.7546 12.1538 21.8039 12.24 22.041C12.2486 22.0648 12.2183 22.1029 12.2061 22.1343C11.7249 21.7057 11.3454 21.1936 10.9966 20.657C10.8901 20.4933 10.7932 20.3233 10.6919 20.1561C10.4941 19.8905 10.3889 19.5853 10.3125 19.2678C10.388 19.1288 10.6041 18.9956 10.7429 19.0347C10.9299 19.0874 11.055 19.0059 11.1473 18.8721C11.2849 18.6728 11.4698 18.5334 11.6477 18.3759C11.8563 18.1912 12.0907 18.0114 12.2332 17.7598C12.3702 17.518 12.5835 17.3637 12.8057 17.216C12.8623 17.1784 12.9254 17.1507 12.9803 17.1095C13.3152 16.858 13.3099 16.4677 12.9678 16.2187C12.8457 16.1298 12.7008 16.0815 12.5753 15.9984C12.4341 15.9048 12.4398 15.7722 12.4799 15.6337C12.508 15.5363 12.4991 15.4 12.6665 15.4236C12.7919 15.5684 12.8562 15.7515 12.9755 15.9025C13.4011 16.441 13.9422 16.7159 14.6368 16.7002C14.947 16.6932 15.248 16.6697 15.5376 16.5527C15.594 16.5299 15.6536 16.5098 15.716 16.5372C15.8001 16.6968 15.7771 16.7838 15.6 16.8428C15.2639 16.9549 14.9445 17.1121 14.602 17.2056C14.218 17.289 13.8554 17.4423 13.4802 17.5537C13.4273 17.578 13.378 17.6082 13.332 17.6441C13.2621 17.6961 13.1875 17.6838 13.112 17.6602C13.0471 17.642 12.9857 17.6378 12.9412 17.7021C12.9026 17.7681 12.9283 17.8465 12.8998 17.9141C12.8922 17.932 12.8851 17.9503 12.8837 17.9701C12.8979 17.9575 12.8999 17.9313 12.9267 17.9322C12.9877 17.9594 12.9918 18.0154 12.9962 18.07C13.0636 18.909 13.3579 19.6614 13.8564 20.3372C13.9058 20.4043 13.9889 20.4666 13.9378 20.5715Z" fill="#3B6294"/>
<circle cx="17.4309" cy="16.3977" r="8.29281" fill="#3B6294" stroke="#224674" stroke-width="1.20822"/>
<path d="M13.9389 20.5711C13.8349 20.4135 13.7329 20.2547 13.6267 20.0986C13.2396 19.53 13.0638 18.8822 12.9337 18.22C12.9159 18.1297 12.9487 18.0255 12.9127 17.9301C12.8674 17.8391 12.8807 17.7467 12.906 17.6539C12.9605 17.5709 13.0325 17.5765 13.1108 17.6134C13.2523 17.6901 13.3792 17.7884 13.5105 17.8804C13.9999 18.2532 14.5212 18.569 15.1039 18.7755C15.1632 18.7965 15.2157 18.8247 15.2489 18.8806C17.3949 19.5685 19.3329 19.1554 21.0917 17.7816C21.1992 17.6976 21.2956 17.5096 21.4408 17.5831C21.5962 17.6618 21.5115 17.8545 21.4986 17.9985C21.3814 19.3032 20.8163 20.3759 19.8113 21.2132C18.2958 22.4759 15.9094 22.4145 14.4606 21.079C14.2822 20.9146 14.1126 20.7406 13.9389 20.5711Z" fill="#224674"/>
<path d="M18.3386 12.8899C18.4577 12.8196 18.573 12.7418 18.6963 12.6801C19.6955 12.1797 20.6099 12.3118 21.4402 13.0546C21.7294 13.4011 21.9274 13.786 22.0087 14.2379C22.2468 15.5618 21.0998 16.8479 19.7534 16.7724C19.088 16.7351 18.5456 16.4671 18.0899 15.9968C17.8309 15.8529 17.734 15.5901 17.64 15.34C17.342 14.5461 17.5359 13.8261 18.0101 13.1598C18.0935 13.0426 18.2034 12.9486 18.3386 12.8899Z" fill="#FEFEFE"/>
<path d="M22.4402 16.6925C22.4378 17.0338 22.1308 17.3326 21.7907 17.3245C21.5247 17.3183 21.2317 17.0236 21.2305 16.7613C21.2292 16.4877 21.5631 16.1342 21.8166 16.1407C22.1622 16.1496 22.4423 16.3974 22.4402 16.6925Z" fill="#486EA0"/>
<path d="M16.8518 13.9142C16.9401 14.3097 16.9745 14.7053 16.8735 15.1052C16.7057 15.7692 16.2838 16.2245 15.7004 16.5501C15.2732 16.7459 14.8196 16.8076 14.3606 16.7526C14.0044 16.7099 13.6779 16.5866 13.3731 16.3589C13.0379 16.1085 12.8231 15.7957 12.6496 15.4349C12.4423 15.1782 12.4433 14.8737 12.4307 14.5647C12.4174 14.2415 12.5427 13.956 12.6242 13.6576C12.6429 13.5891 12.6824 13.5347 12.7512 13.5066C13.0279 13.0885 13.3641 12.7403 13.8433 12.5513C14.4701 12.304 15.0871 12.3484 15.7003 12.5976C16.2399 12.9002 16.6434 13.3219 16.8518 13.9142Z" fill="#FEFEFE"/>
<path d="M19.4978 21.169C18.1575 22.1316 16.167 22.126 14.9375 21.1651C16.0137 20.3097 18.4 20.308 19.4978 21.169Z" fill="#FE7EA8"/>
<path d="M18.7152 14.1621C19.0808 14.1592 19.3861 14.4549 19.3921 14.8176C19.3982 15.1896 19.0892 15.5043 18.7202 15.5019C18.3562 15.4995 18.0789 15.2043 18.0781 14.8184C18.0774 14.4417 18.3459 14.1651 18.7152 14.1621Z" fill="#000012"/>
<path d="M15.1289 14.8388C15.1264 14.4655 15.4153 14.1653 15.7782 14.1641C16.1457 14.1628 16.444 14.4538 16.4505 14.8197C16.4572 15.1951 16.1594 15.499 15.7837 15.5001C15.4043 15.5013 15.1316 15.2259 15.1289 14.8388Z" fill="#000010"/>
<path d="M12.4768 16.2158C12.808 16.2163 12.9911 16.395 12.9885 16.7152C12.986 17.0382 12.7736 17.2826 12.4953 17.2828C12.1933 17.2831 11.9633 17.0564 11.961 16.7562C11.9586 16.4556 12.1879 16.2154 12.4768 16.2158Z" fill="#486EA0"/>
</g>
<path d="M16.5 32C7.6775 32 0.5 24.8222 0.5 16C0.5 7.1775 7.6775 0 16.5 0C25.3225 0 32.5 7.17778 32.5 16C32.5 24.8222 25.3225 32 16.5 32ZM16.5 1.07338C8.26943 1.07338 1.57338 7.76916 1.57338 16C1.57338 24.2308 8.26971 30.9266 16.5 30.9266C24.7306 30.9266 31.4266 24.2308 31.4266 16C31.4266 7.76916 24.7306 1.07338 16.5 1.07338Z" fill="#C8E4FC"/>
</svg>
