<svg width="40" height="40" viewBox="0 0 40 40" fill="none" xmlns="http://www.w3.org/2000/svg">
<rect x="0.5" y="0.5" width="39" height="39" rx="19.5" fill="white"/>
<rect x="0.5" y="0.5" width="39" height="39" rx="19.5" stroke="#E9EDEE"/>
<path d="M17.5699 26.82C17.3799 26.82 17.1899 26.75 17.0399 26.6L10.9699 20.53C10.6799 20.24 10.6799 19.76 10.9699 19.47L17.0399 13.4C17.3299 13.11 17.8099 13.11 18.0999 13.4C18.3899 13.69 18.3899 14.17 18.0999 14.46L12.5599 20L18.0999 25.54C18.3899 25.83 18.3899 26.31 18.0999 26.6C17.9599 26.75 17.7599 26.82 17.5699 26.82Z" fill="#25292A"/>
<path d="M28.4999 20.75H11.6699C11.2599 20.75 10.9199 20.41 10.9199 20C10.9199 19.59 11.2599 19.25 11.6699 19.25H28.4999C28.9099 19.25 29.2499 19.59 29.2499 20C29.2499 20.41 28.9099 20.75 28.4999 20.75Z" fill="#25292A"/>
</svg>
