<svg width="16" height="16" viewBox="0 0 16 16" fill="none" xmlns="http://www.w3.org/2000/svg">
<path d="M7.99984 0.833292C11.9532 0.833292 15.1665 4.04663 15.1665 7.99996C15.1665 11.9533 11.9532 15.1666 7.99984 15.1666C4.0465 15.1666 0.83317 11.9533 0.83317 7.99996C0.83317 4.04663 4.0465 0.833292 7.99984 0.833292ZM7.99984 14.1666C11.3998 14.1666 14.1665 11.4 14.1665 7.99996C14.1665 4.59996 11.3998 1.83329 7.99984 1.83329C4.59984 1.83329 1.83317 4.59996 1.83317 7.99996C1.83317 11.4 4.59984 14.1666 7.99984 14.1666Z" fill="#25292A"/>
<path d="M8 6.83329C8.27333 6.83329 8.5 7.05996 8.5 7.33329V10.6666C8.5 10.94 8.27333 11.1666 8 11.1666C7.72667 11.1666 7.5 10.94 7.5 10.6666V7.33329C7.5 7.05996 7.72667 6.83329 8 6.83329Z" fill="#25292A"/>
<path d="M7.99984 4.6667C8.0865 4.6667 8.17317 4.6867 8.25317 4.72004C8.33317 4.75337 8.4065 4.80004 8.47317 4.86004C8.53317 4.9267 8.57984 4.99337 8.61317 5.08004C8.6465 5.16004 8.6665 5.2467 8.6665 5.33337C8.6665 5.42004 8.6465 5.5067 8.61317 5.5867C8.57984 5.6667 8.53317 5.74004 8.47317 5.8067C8.4065 5.8667 8.33317 5.91337 8.25317 5.9467C8.09317 6.01337 7.9065 6.01337 7.7465 5.9467C7.6665 5.91337 7.59317 5.8667 7.5265 5.8067C7.4665 5.74004 7.41984 5.6667 7.3865 5.5867C7.35317 5.5067 7.33317 5.42004 7.33317 5.33337C7.33317 5.2467 7.35317 5.16004 7.3865 5.08004C7.41984 4.99337 7.4665 4.9267 7.5265 4.86004C7.59317 4.80004 7.6665 4.75337 7.7465 4.72004C7.8265 4.6867 7.91317 4.6667 7.99984 4.6667Z" fill="#25292A"/>
</svg>
