<svg width="24" height="24" viewBox="0 0 24 24" fill="none" xmlns="http://www.w3.org/2000/svg">
<path d="M13.4867 2.76708C12.9199 3.202 12.3927 3.7163 11.9312 4.29638C10.9556 5.49595 10.2964 6.89341 9.99317 8.37011C9.01772 7.06494 8.47705 5.4829 8.47705 3.80858V2.70116C8.47705 2.33188 8.76723 2.04198 9.13623 2.04198H10.2437C11.3774 2.04198 12.4849 2.29247 13.4867 2.76708Z" fill="#DD6F94"/>
<path d="M21.1729 2.04198H19.4063C16.8882 2.04198 14.5415 3.16258 12.9595 5.1139C11.4567 6.98583 10.8369 9.37207 11.2455 11.7057L14.1196 8.83154C14.3703 8.56787 14.792 8.56787 15.0425 8.83154C15.3062 9.08217 15.3062 9.5039 15.0425 9.75439L12.208 12.5889H13.5395C16.1104 12.5889 18.444 11.5474 19.9468 9.74121C21.1729 8.25146 21.832 6.41894 21.832 4.46776V2.70116C21.832 2.33188 21.5421 2.04198 21.1729 2.04198Z" fill="#DD6F94"/>
<path d="M22.7461 13.1821C22.1924 12.7075 21.3619 12.7604 20.861 13.2877C17.1566 17.1494 16.9105 17.4314 16.7783 17.5195C16.541 17.7437 16.2115 17.8623 15.8952 17.8623H10.9336C10.5696 17.8623 10.2744 17.5672 10.2744 17.2031C10.2744 16.8391 10.5696 16.544 10.9336 16.544H15.46C16.1851 16.544 16.7783 15.9507 16.7783 15.2256C16.7783 14.5005 16.1851 13.9072 15.46 13.9072H11.0948L10.5978 13.4701C9.63928 12.6262 8.36418 12.2168 7.09072 12.3436C5.92109 12.4606 4.88151 13.0238 4.1023 13.9072H1.39732C1.0334 13.9072 0.738281 14.2024 0.738281 14.5664V21.1596C0.738281 21.5228 1.03285 21.8174 1.39623 21.8174H17.1251C17.3229 21.8174 17.5102 21.7287 17.6353 21.5756L22.9439 15.0938C23.4053 14.5005 23.313 13.6567 22.7461 13.1821Z" fill="#DD6F94"/>
</svg>
