<svg width="24" height="24" viewBox="0 0 24 24" fill="none" xmlns="http://www.w3.org/2000/svg">
<g clip-path="url(#clip0_4209_73095)">
<path d="M16.2854 0.705887H7.72976C7.5127 0.705887 7.35069 0.899419 7.38208 1.1142C7.8208 4.11558 7.35855 6.99979 5.85938 9.74828C7.91343 10.4294 10.0064 10.7753 12.0782 10.7753C14.0899 10.7753 16.144 10.4471 18.1805 9.80472C16.7158 7.14242 16.1718 4.24983 16.6326 1.11459C16.6642 0.899828 16.5025 0.705887 16.2854 0.705887ZM12.05 9.93182C11.6829 9.93182 11.3829 9.63178 11.3829 9.26471C11.3829 8.89773 11.6829 8.60829 12.05 8.60829C12.4171 8.60829 12.7064 8.89773 12.7064 9.26471C12.7064 9.63178 12.4171 9.93182 12.05 9.93182Z" fill="#DD6F94"/>
<path d="M19.8095 15.8871C16.5816 15.3611 13.9733 16.2618 12.0567 18.7404C9.59981 16.3411 6.93393 15.1508 4.20313 15.8858C4.16707 15.8569 4.23189 15.8295 4.20313 15.8007C4.23189 13.9562 4.63534 12.1188 5.55041 10.3103C5.59369 10.2887 5.63696 10.2671 5.68014 10.2455C9.92401 11.6577 14.175 11.6505 18.4477 10.2743C19.3844 12.126 19.7951 13.9922 19.8095 15.8871Z" fill="#DD6F94"/>
<path d="M19.7227 16.4082C19.1651 16.32 18.618 16.2706 18.1028 16.2706C15.7699 16.2706 13.9274 17.1848 12.4769 19.0659L12.3213 19.2668V23.2941H17.8217C18.0738 23.2941 18.3023 23.1382 18.3912 22.9024C19.2132 20.7235 19.7473 18.5636 19.804 16.4224L19.7227 16.4082Z" fill="#DD6F94"/>
<path d="M11.792 19.2218L11.6864 19.1189C9.70284 17.1812 7.72987 16.2001 5.81695 16.2001C5.32287 16.2001 4.82878 16.2671 4.34168 16.3977L4.20752 16.433C4.26084 18.5671 4.7978 20.7266 5.61701 22.9021C5.70587 23.1381 5.93442 23.2941 6.18659 23.2941H11.792V19.2218Z" fill="#DD6F94"/>
<path d="M5.92256 5.0766C5.9367 5.119 5.94367 5.16484 5.94367 5.21077C5.94367 5.25661 5.93669 5.30253 5.92256 5.34484C5.91903 5.36957 5.91197 5.3943 5.90137 5.41541C5.87664 5.479 5.83786 5.53544 5.7884 5.5849L4.91311 6.45657C4.81075 6.55894 4.67667 6.61193 4.5426 6.61193C4.4049 6.61193 4.27082 6.55894 4.16492 6.45657C3.97079 6.25899 3.96019 5.94482 4.14019 5.74017H1.24963C0.956657 5.74017 0.720215 5.50011 0.720215 5.21076C0.720215 4.91779 0.956657 4.68135 1.24963 4.68135H4.14019C3.96019 4.47662 3.97079 4.159 4.16492 3.96134C4.37319 3.7566 4.70838 3.7566 4.91665 3.96134L5.7884 4.83662C5.83786 4.886 5.87664 4.94252 5.90137 5.00603C5.91197 5.02723 5.91903 5.05187 5.92256 5.0766Z" fill="#DD6F94"/>
<path d="M23.2802 5.21076C23.2802 5.50011 23.0437 5.74017 22.7508 5.74017H19.8602C20.0437 5.94482 20.0331 6.25899 19.8355 6.45657C19.7331 6.55894 19.599 6.61193 19.4614 6.61193C19.3273 6.61193 19.1931 6.55894 19.0873 6.45657L18.2155 5.5849H18.212C18.1132 5.48598 18.0566 5.3519 18.0566 5.21076C18.0566 5.06953 18.1132 4.93546 18.212 4.83662H18.2155L19.0873 3.96134C19.2955 3.7566 19.6308 3.7566 19.8355 3.96134C20.0331 4.159 20.0437 4.47662 19.8602 4.68135H22.7508C23.0437 4.68135 23.2802 4.91779 23.2802 5.21076Z" fill="#DD6F94"/>
</g>
<defs>
<clipPath id="clip0_4209_73095">
<rect width="24" height="24" fill="white"/>
</clipPath>
</defs>
</svg>
