<svg width="24" height="24" viewBox="0 0 24 24" fill="none" xmlns="http://www.w3.org/2000/svg">
<g clip-path="url(#clip0_4209_73089)">
<path d="M8.78431 14.6304C8.6783 14.5123 8.65255 14.3424 8.71826 14.198C9.57808 12.3078 8.64545 11.2501 8.73836 6.97941C8.74276 6.77665 8.90071 6.5833 9.15382 6.5881C9.37202 6.59225 9.54297 6.77775 9.53822 6.99591C9.53407 7.18576 9.53222 7.37637 9.53247 7.56742C9.53277 7.78883 9.71353 7.96958 9.93493 7.96658C10.5855 7.95768 11.8512 7.74343 12.341 6.27404L12.5846 5.54328C13.0354 4.19085 12.2652 2.73071 10.8801 2.34945L8.3889 1.66379C7.39643 1.39063 6.32175 1.76489 5.71429 2.59501C2.80092 6.57595 0.866677 11.1542 0.0452582 16.0037C-0.180497 17.3362 0.452818 18.6808 1.62129 19.3493C8.18204 23.1031 15.9614 23.4668 23.0099 20.1828C23.6114 19.9026 24.0001 19.292 24.0001 18.6274V11.4793C24.0001 10.9092 23.7193 10.3786 23.249 10.0599C20.7203 8.34604 17.5003 8.55129 15.3434 10.8269C15.1511 11.0297 15.224 11.3622 15.4818 11.47C16.4562 11.8774 17.3775 12.4694 18.1463 13.1685C18.3135 13.3205 18.3252 13.5838 18.1592 13.7493C18.0086 13.8995 17.767 13.9052 17.6091 13.7626C15.5944 11.9432 12.8707 11.1155 10.161 11.9812C9.99478 12.0343 9.88343 12.1916 9.88618 12.366C9.89753 13.0916 9.77638 13.7943 9.44522 14.5303C9.32712 14.7927 8.97636 14.8445 8.78431 14.6304Z" fill="#DD6F94"/>
</g>
<defs>
<clipPath id="clip0_4209_73089">
<rect width="24" height="24" fill="white"/>
</clipPath>
</defs>
</svg>
