<svg width="24" height="24" viewBox="0 0 24 24" fill="none" xmlns="http://www.w3.org/2000/svg">
<path d="M11.2885 3.82175C11.2931 3.84019 11.2931 3.85858 11.2931 3.87932V19.6735C11.2931 21.1912 10.0586 22.4325 8.53404 22.4325C7.01634 22.4325 5.775 21.1912 5.775 19.6735C5.775 19.5307 5.80034 19.3902 5.82106 19.2451C5.56543 19.3188 5.29598 19.3718 5.02192 19.3718C3.38447 19.3718 2.04641 18.0383 2.04641 16.4009C2.04641 15.8712 2.19379 15.3507 2.46095 14.8993C1.36471 14.3719 0.600098 13.2596 0.600098 11.963C0.600098 11.0026 1.01464 10.1113 1.7401 9.49411C1.70324 9.30989 1.68252 9.12333 1.68252 8.92985C1.68252 7.56417 2.62907 6.42649 3.89804 6.11786C3.82203 5.88756 3.77137 5.64803 3.77137 5.39701C3.77137 4.1004 4.82615 3.04563 6.11816 3.04563C6.46821 3.04563 6.80446 3.12392 7.10616 3.26213C7.18906 2.84987 7.39404 2.46987 7.70265 2.16819C8.53404 1.35521 9.88131 1.37132 10.692 2.20271C11.1157 2.63799 11.3322 3.22066 11.2885 3.82175Z" fill="#DD6F94"/>
<path d="M21.5391 14.9016C21.8017 15.3507 21.9537 15.8712 21.9537 16.4009C21.9537 18.0383 20.6156 19.3718 18.9781 19.3718C18.7041 19.3718 18.4369 19.3165 18.179 19.2451C18.1997 19.3902 18.2251 19.5284 18.2251 19.6735C18.2251 21.1912 16.9837 22.4325 15.466 22.4325C13.9414 22.4325 12.707 21.1912 12.707 19.6735V3.87931C12.707 3.85856 12.707 3.84245 12.7116 3.82174C12.6678 3.22065 12.8843 2.63567 13.3081 2.20731C14.1188 1.37131 15.466 1.35059 16.2974 2.16818C16.6106 2.46986 16.811 2.84986 16.8939 3.25981C17.1956 3.1193 17.5295 3.04331 17.8819 3.04331C19.1739 3.04331 20.2333 4.09809 20.2333 5.39472C20.2333 5.64572 20.178 5.88524 20.102 6.11555C21.3687 6.42417 22.3175 7.56185 22.3175 8.92754C22.3175 9.12332 22.2991 9.30987 22.26 9.4918C22.9854 10.1113 23.4 11.0003 23.4 11.9629C23.4 13.2619 22.6377 14.3719 21.5391 14.9016Z" fill="#DD6F94"/>
</svg>
