<svg width="40" height="41" viewBox="0 0 40 41" fill="none" xmlns="http://www.w3.org/2000/svg">
<rect x="0.5" y="1" width="39" height="39" rx="19.5" fill="white"/>
<rect x="0.5" y="1" width="39" height="39" rx="19.5" stroke="#E9EDEE"/>
<path d="M17.5704 27.32C17.3804 27.32 17.1904 27.25 17.0404 27.1L10.9704 21.03C10.6804 20.74 10.6804 20.26 10.9704 19.97L17.0404 13.9C17.3304 13.61 17.8104 13.61 18.1004 13.9C18.3904 14.19 18.3904 14.67 18.1004 14.96L12.5604 20.5L18.1004 26.04C18.3904 26.33 18.3904 26.81 18.1004 27.1C17.9604 27.25 17.7604 27.32 17.5704 27.32Z" fill="#25292A"/>
<path d="M28.4999 21.25H11.6699C11.2599 21.25 10.9199 20.91 10.9199 20.5C10.9199 20.09 11.2599 19.75 11.6699 19.75H28.4999C28.9099 19.75 29.2499 20.09 29.2499 20.5C29.2499 20.91 28.9099 21.25 28.4999 21.25Z" fill="#25292A"/>
</svg>
